<?xml version="1.0" standalone="no"?>
<!DOCTYPE svg PUBLIC "-//W3C//DTD SVG 20010904//EN"
 "http://www.w3.org/TR/2001/REC-SVG-20010904/DTD/svg10.dtd">
<svg version="1.0" xmlns="http://www.w3.org/2000/svg"
 width="1440.000000pt" height="1440.000000pt" viewBox="0 0 1440.000000 1440.000000"
 preserveAspectRatio="xMidYMid meet">
<metadata>
Created by potrace 1.16, written by Peter Selinger 2001-2019
</metadata>
<g transform="translate(0.000000,1440.000000) scale(0.100000,-0.100000)"
fill="#000000" stroke="none">
<path d="M6977 12753 c-25 -54 -66 -152 -90 -218 -25 -66 -64 -163 -87 -215
-23 -52 -53 -129 -68 -170 -14 -41 -56 -149 -93 -240 -37 -91 -113 -277 -168
-415 -118 -288 -180 -435 -194 -452 -5 -7 -25 -15 -46 -19 -167 -28 -513 -137
-726 -229 -16 -7 -75 -32 -130 -55 -150 -63 -360 -177 -466 -252 -13 -9 -23
-7 -47 11 -17 12 -84 44 -149 70 -65 27 -188 80 -273 119 -85 38 -175 77 -200
85 -90 30 -208 85 -261 120 -30 19 -81 48 -114 63 -56 26 -69 28 -217 30 -106
2 -173 7 -205 17 -27 8 -85 25 -130 37 -46 11 -99 28 -119 36 -20 8 -38 13
-41 10 -13 -13 12 -83 72 -203 65 -130 65 -131 65 -216 0 -105 34 -231 90
-333 38 -70 101 -216 184 -429 24 -60 62 -146 84 -190 22 -44 54 -111 72 -150
17 -38 43 -84 56 -102 13 -17 24 -38 24 -46 0 -8 -37 -75 -81 -148 -94 -155
-175 -314 -212 -414 -14 -38 -35 -92 -45 -120 -112 -289 -171 -476 -213 -675
-11 -52 -23 -98 -28 -103 -5 -5 -91 -37 -192 -72 -184 -63 -265 -95 -519 -204
-330 -143 -455 -193 -605 -246 -411 -145 -605 -221 -605 -236 0 -4 19 -13 43
-19 52 -14 111 -33 307 -105 310 -112 515 -193 950 -375 195 -81 472 -177 585
-202 l60 -13 8 -50 c23 -142 77 -337 155 -555 30 -84 46 -122 136 -335 46
-108 176 -363 223 -437 28 -46 29 -67 4 -110 -11 -18 -41 -82 -66 -143 -26
-60 -51 -115 -55 -120 -5 -6 -23 -47 -40 -90 -100 -251 -131 -324 -202 -461
-96 -188 -121 -271 -116 -397 l3 -93 -80 -156 c-44 -87 -76 -160 -73 -164 7
-6 231 51 340 87 32 10 79 19 105 19 86 0 211 37 323 96 58 31 166 82 240 114
74 32 198 86 275 120 77 34 190 82 250 107 61 25 124 56 142 69 l32 24 66 -46
c160 -112 611 -317 990 -451 75 -26 300 -73 351 -73 40 0 50 -12 69 -85 8 -33
55 -157 104 -275 50 -118 105 -258 124 -310 19 -52 58 -149 87 -215 29 -66 86
-205 127 -310 136 -347 251 -605 268 -605 14 0 49 74 104 222 22 57 58 146 81
198 23 52 74 183 115 290 66 177 105 277 225 585 40 101 137 359 170 450 21
57 17 55 176 84 139 26 333 81 444 127 47 20 139 56 205 81 167 63 533 252
591 304 11 11 27 19 36 19 9 0 92 -36 184 -81 93 -45 189 -89 214 -99 92 -36
360 -161 510 -237 161 -82 209 -96 360 -107 70 -5 193 -45 331 -107 117 -53
124 -52 100 9 -11 26 -35 81 -54 122 -63 138 -87 221 -87 307 0 110 -20 177
-99 338 -39 77 -83 176 -100 220 -16 44 -41 107 -56 140 -15 33 -56 132 -92
220 -36 88 -83 194 -104 235 l-40 75 27 50 c15 27 59 106 99 175 99 174 180
363 305 715 39 108 112 396 119 470 l6 60 65 6 c80 8 319 93 590 212 107 46
233 98 280 115 47 16 115 42 150 57 104 44 316 120 600 216 145 50 266 92 269
95 10 10 -17 24 -66 33 -52 10 -236 73 -518 178 -223 83 -232 86 -335 131 -52
22 -140 59 -195 81 -55 22 -145 58 -200 81 -193 80 -487 190 -558 209 -81 21
-72 6 -102 160 -44 223 -199 657 -340 955 -33 68 -163 298 -209 368 -14 21
-13 26 14 69 66 107 310 621 310 654 0 3 35 79 79 168 88 182 121 284 121 375
0 64 44 211 89 300 12 23 24 63 28 89 l6 46 -46 -6 c-26 -4 -97 -28 -159 -53
-105 -43 -119 -47 -192 -45 -43 1 -82 4 -87 6 -4 3 -40 1 -81 -5 -81 -12 -164
-47 -253 -107 -33 -23 -121 -67 -195 -98 -215 -91 -549 -244 -617 -281 -34
-19 -66 -34 -73 -34 -6 0 -26 11 -43 24 -36 27 -327 186 -427 233 -102 48
-332 137 -485 188 -141 47 -202 62 -374 92 l-93 17 -18 40 c-10 23 -53 129
-96 236 -42 107 -124 310 -181 450 -58 140 -135 334 -173 430 -37 96 -93 240
-125 320 -31 80 -61 158 -66 174 -20 67 -61 166 -68 166 -5 0 -29 -44 -54 -97z
m68 -838 c16 -131 41 -369 50 -480 6 -62 24 -198 40 -292 4 -19 2 -33 -4 -33
-6 0 -8 6 -5 13 3 8 -2 14 -11 14 -10 0 -13 -6 -9 -19 3 -10 1 -18 -5 -18 -5
0 -12 -10 -14 -22 -4 -20 -4 -19 -6 5 0 15 -5 27 -11 27 -5 0 -11 28 -13 63
-2 34 -4 -59 -5 -208 -2 -254 -11 -406 -46 -808 -9 -92 -22 -297 -31 -455 -31
-582 -35 -662 -55 -897 -11 -132 -20 -273 -20 -312 l0 -73 -60 0 c-36 0 -89
-9 -128 -22 -37 -12 -70 -21 -74 -20 -5 1 -8 -3 -8 -8 0 -21 -20 -9 -26 15 -3
14 -18 35 -33 46 -14 11 -54 47 -87 80 -61 58 -62 59 -53 96 5 21 20 88 35
148 14 61 32 144 39 185 12 68 25 140 69 375 8 44 20 105 26 135 30 143 43
211 80 425 22 127 44 253 50 280 6 28 17 97 25 155 28 205 80 495 96 537 5 13
9 41 9 61 0 21 11 105 25 187 49 288 56 330 65 395 4 36 11 106 15 155 4 50
11 108 15 130 5 22 11 69 15 105 9 96 29 209 32 180 2 -14 10 -79 18 -145z
m-305 -443 c0 -34 -22 -135 -50 -227 -49 -160 -37 -142 -99 -148 -62 -5 -74
-1 -51 16 8 7 17 23 18 37 2 14 10 32 17 40 7 8 15 26 18 40 18 80 29 118 42
145 8 17 21 47 29 68 8 20 21 37 29 37 8 0 18 7 21 16 9 23 26 7 26 -24z m632
11 c32 -40 108 -257 108 -312 0 -16 5 -33 10 -36 6 -3 10 -13 10 -21 0 -10
-14 -14 -55 -14 l-55 0 -1 33 c-3 59 -6 79 -16 86 -33 23 -60 281 -30 281 8 0
21 -8 29 -17z m-712 -648 c0 -9 -7 -32 -15 -52 -8 -19 -15 -54 -15 -77 l0 -42
-167 -23 c-93 -13 -177 -21 -188 -19 -14 4 -7 8 23 13 38 7 42 10 42 37 0 23
4 29 15 24 8 -3 15 -2 15 3 0 4 45 13 101 20 117 13 163 30 84 31 -28 0 -100
-12 -160 -26 -61 -14 -175 -39 -255 -55 -80 -16 -154 -33 -165 -38 -11 -5 -37
-17 -57 -26 -22 -10 -35 -22 -31 -28 4 -7 0 -8 -11 -4 -10 4 -32 1 -49 -6 -90
-38 -144 -60 -164 -64 -13 -3 -23 -9 -23 -13 0 -5 -10 -11 -22 -13 -18 -3 -16
-5 7 -6 17 0 36 4 43 11 9 9 12 8 12 -8 0 -14 2 -16 9 -6 7 11 12 12 29 1 11
-7 18 -19 15 -26 -5 -13 -77 -53 -95 -53 -24 0 -338 -163 -423 -220 -225 -150
-262 -176 -314 -222 -29 -27 -67 -56 -84 -64 -17 -9 -42 -27 -56 -40 -14 -13
-32 -22 -39 -19 -7 3 -10 0 -7 -6 4 -5 -6 -21 -21 -34 -21 -18 -30 -21 -36
-12 -6 9 -8 9 -9 0 -4 -34 -6 -38 -17 -35 -7 1 -12 -4 -12 -12 0 -7 -7 -19
-15 -26 -9 -8 -15 -8 -15 -2 0 6 6 13 13 16 6 3 2 3 -10 0 -30 -7 -30 14 0 27
21 9 20 9 -6 6 -24 -4 -26 -2 -15 12 30 37 52 50 67 38 12 -10 13 -9 7 1 -12
19 14 62 42 73 13 5 20 13 17 19 -3 5 3 10 13 10 22 0 46 23 35 34 -4 4 6 2
22 -3 28 -10 29 -10 11 4 -16 12 -17 15 -4 15 9 0 18 7 22 15 3 8 12 15 20 15
13 0 61 68 53 76 -14 15 -251 -188 -420 -360 -167 -169 -203 -215 -340 -421
-74 -110 -177 -287 -177 -302 0 -3 -7 -14 -14 -22 -20 -21 -136 -251 -136
-268 0 -7 -4 -13 -9 -13 -5 0 -14 -21 -21 -47 -6 -26 -15 -52 -19 -58 -5 -5
-11 -27 -15 -48 -4 -21 -23 -71 -42 -112 -18 -42 -34 -80 -34 -85 0 -6 -4 -18
-9 -28 -10 -19 -57 -163 -65 -202 -3 -14 -15 -65 -26 -115 -11 -49 -23 -112
-25 -140 -3 -27 -7 -60 -10 -72 -3 -12 -1 -25 5 -28 5 -3 10 -21 10 -38 0 -18
-4 -27 -8 -22 -4 6 -16 11 -27 13 -19 2 -19 2 -1 -9 15 -9 16 -13 5 -20 -11
-7 -10 -9 4 -9 9 0 17 -4 17 -9 0 -5 6 -11 13 -14 6 -2 4 -3 -6 -1 -10 1 -39
-3 -63 -11 -52 -16 -51 -18 -29 95 8 41 31 161 50 265 60 325 90 432 186 677
81 206 262 547 369 698 148 208 215 289 346 422 409 416 828 686 1388 894 174
65 292 98 481 135 227 43 248 46 333 48 59 1 72 -2 72 -14z m1007 -9 c37 -8
111 -22 163 -32 315 -57 779 -242 1130 -451 364 -216 569 -397 856 -753 208
-257 398 -588 527 -915 72 -182 147 -391 147 -408 0 -7 7 -37 15 -67 8 -30 29
-115 45 -188 17 -73 34 -142 39 -155 5 -12 12 -70 16 -129 l7 -107 -34 9 c-18
6 -56 10 -85 10 -28 0 -54 3 -56 8 -3 4 -12 68 -21 142 -9 74 -21 149 -26 165
-5 17 -19 71 -31 120 -25 105 -57 213 -70 237 -5 10 -9 23 -9 29 0 38 -245
602 -269 619 -4 3 -14 21 -21 40 -8 19 -29 57 -47 85 -18 27 -33 55 -33 62 0
7 -4 13 -10 13 -5 0 -17 17 -27 38 -9 20 -26 49 -37 65 -16 22 -18 29 -6 40
10 10 12 9 6 -7 -5 -16 -4 -17 9 -6 8 7 15 24 14 39 0 22 -1 23 -8 7 -10 -25
-22 -7 -15 21 6 21 41 25 36 4 -1 -6 3 -11 8 -11 6 0 15 -11 20 -25 5 -14 14
-25 19 -25 5 0 7 -8 4 -19 -6 -24 15 -38 23 -16 4 9 -2 29 -15 45 -11 16 -21
34 -21 40 0 5 -4 10 -9 10 -4 0 -21 20 -37 46 -28 44 -47 47 -24 3 7 -12 8
-19 2 -16 -5 4 -18 0 -28 -8 -10 -8 -23 -14 -29 -15 -5 0 -5 4 2 8 18 11 -1
36 -22 29 -10 -4 -13 -12 -9 -19 16 -27 -31 19 -58 57 -26 36 -46 59 -137 158
-22 24 -23 29 -11 37 8 5 22 10 30 10 13 0 13 -1 0 -10 -12 -7 -3 -20 45 -67
32 -32 68 -77 81 -101 20 -39 22 -41 28 -20 l7 23 9 -22 c5 -13 17 -23 25 -23
9 0 14 4 11 9 -4 5 -1 11 5 13 7 2 6 13 -2 33 -7 17 -12 33 -11 36 0 3 -5 6
-13 6 -8 0 -12 -4 -9 -9 10 -16 -16 -8 -36 12 l-20 20 25 0 c30 0 29 -1 9 39
-8 17 -20 29 -25 26 -5 -4 -9 2 -9 12 0 16 -166 183 -183 183 -9 0 -69 41 -78
54 -4 4 -10 3 -14 -4 -4 -7 -1 -16 6 -21 12 -7 11 -9 -1 -9 -9 0 -11 -3 -4 -8
16 -11 12 -51 -5 -44 -10 4 -12 1 -6 -7 10 -18 -27 2 -44 23 -11 13 -10 17 4
22 10 4 21 1 27 -7 8 -11 9 -10 4 4 -3 9 0 17 6 17 20 0 -4 17 -33 24 -21 4
-26 2 -25 -11 2 -28 -18 -24 -39 7 -11 17 -26 28 -32 25 -8 -2 -13 4 -13 15 0
16 4 17 32 9 43 -12 58 -11 35 2 -9 6 -15 14 -12 19 3 4 -6 15 -20 24 -14 9
-25 22 -25 29 0 8 3 8 9 -2 6 -9 11 -10 15 -2 4 6 3 11 -2 11 -4 0 -17 8 -28
18 -77 72 -230 182 -344 249 -180 105 -365 196 -400 196 -16 0 -27 4 -24 8 2
4 -31 24 -73 44 -69 33 -131 56 -333 125 -30 10 -107 30 -170 45 -63 15 -124
31 -135 35 -11 5 -47 14 -80 20 -33 6 -76 15 -95 20 -221 51 -210 51 -200 4 5
-19 16 -44 26 -55 16 -18 16 -19 -9 -19 -25 0 -27 3 -27 43 -1 23 -7 60 -15
82 -8 22 -15 44 -15 49 0 13 203 0 287 -18z m-3873 -49 c67 -36 89 -69 108
-159 14 -68 -3 -121 -57 -183 -54 -60 -168 -85 -233 -51 -71 37 -131 137 -132
216 0 65 39 142 91 179 36 27 51 31 103 31 49 -1 72 -7 120 -33z m6609 17 c41
-21 97 -74 97 -92 0 -7 -5 -10 -10 -7 -6 4 -43 -13 -83 -36 -57 -34 -84 -43
-132 -47 -55 -4 -63 -2 -88 24 -15 15 -29 25 -31 23 -4 -4 -10 -84 -7 -109 0
-8 19 -34 40 -57 22 -23 36 -44 33 -48 -4 -3 0 -10 8 -15 8 -5 12 -12 8 -15
-9 -9 -56 39 -90 92 -27 42 -30 53 -24 101 11 91 60 160 136 191 39 15 108 13
143 -5z m-3172 -165 c6 -19 12 -75 12 -125 1 -49 7 -92 12 -96 6 -5 5 -8 -2
-8 -7 0 -13 -8 -13 -17 0 -15 2 -16 10 -3 7 11 10 8 10 -15 0 -17 13 -73 29
-125 27 -89 51 -196 66 -300 4 -25 11 -61 15 -80 5 -19 18 -87 30 -150 12 -63
30 -158 40 -210 28 -142 31 -170 20 -170 -6 0 -10 5 -10 12 0 6 -3 8 -6 5 -4
-4 -1 -13 6 -22 10 -12 10 -15 -5 -15 -9 0 -15 -6 -12 -12 2 -7 13 -12 25 -10
17 2 19 -1 15 -19 -5 -16 -3 -20 6 -15 9 6 11 -1 5 -31 -9 -52 -10 -51 -19 9
l-8 53 -7 -38 c-4 -21 -5 -50 -3 -65 l3 -27 -10 25 c-7 14 -10 42 -8 63 4 42
-6 46 -38 16 l-22 -20 6 68 c2 37 10 71 16 75 17 12 -3 9 -25 -3 -11 -5 -17
-14 -14 -18 2 -5 -8 -11 -24 -14 -17 -4 -32 -15 -36 -26 -3 -11 -15 -23 -26
-26 -16 -5 -19 -12 -13 -40 5 -28 2 -34 -15 -40 -11 -3 -20 -9 -20 -13 1 -4 1
-16 0 -27 -3 -40 -22 13 -23 65 -1 27 -5 47 -10 44 -4 -3 -9 7 -9 23 l-1 28
-8 -30 c-4 -16 -8 -48 -9 -69 -1 -37 0 -38 14 -20 11 15 14 16 15 3 0 -8 -7
-24 -15 -35 -8 -10 -15 -29 -15 -41 0 -13 -3 -23 -7 -23 -5 0 -9 28 -11 63 -2
34 -5 87 -7 117 -2 30 -7 132 -10 225 -6 180 -12 305 -20 420 -3 39 -8 116
-11 173 -3 56 -9 102 -12 102 -4 0 -6 75 -5 168 2 92 4 219 4 282 1 90 3 106
10 75 5 -22 6 -74 3 -115 -4 -51 -3 -72 4 -65 12 12 21 155 10 155 -5 0 -8 12
-7 28 0 15 3 20 6 12 2 -8 7 -22 10 -30 4 -8 7 -19 7 -25 1 -5 9 -9 19 -9 9 1
24 2 33 3 11 1 13 7 9 22 -4 11 -4 32 0 47 7 23 10 18 22 -38 7 -36 18 -81 24
-101z m-904 45 c2 -13 1 -15 -4 -4 -3 8 -11 19 -17 23 -7 6 -6 7 4 4 8 -2 16
-12 17 -23z m1229 -2 c-5 -8 -66 -4 -66 4 0 2 16 4 36 4 19 0 33 -4 30 -8z
m2980 -138 c-4 -17 -13 -35 -22 -38 -11 -4 -12 -2 -4 13 7 14 6 20 -5 25 -8 3
-15 10 -15 16 0 6 5 8 10 5 6 -3 10 -2 10 4 0 5 5 22 12 38 l12 28 4 -29 c2
-16 1 -44 -2 -62z m-4540 53 c4 -4 -4 -8 -17 -8 -17 -1 -19 -3 -6 -6 19 -5 14
-23 -8 -23 -14 0 -28 27 -20 39 5 9 42 8 51 -2z m3948 -61 c8 -39 7 -50 -5
-57 -92 -58 -237 -138 -249 -139 -8 0 -22 -5 -30 -10 -11 -8 -7 -9 15 -4 27 7
29 6 17 -9 -7 -8 -38 -34 -67 -57 l-54 -42 -46 29 c-25 15 -56 36 -68 45 l-22
17 57 55 c31 30 73 65 95 79 75 47 316 150 338 143 6 -1 14 -24 19 -50z
m-5685 -10 c60 -30 138 -73 174 -95 36 -22 98 -57 137 -77 38 -20 70 -40 70
-44 0 -4 -21 -13 -46 -20 -31 -9 -55 -25 -77 -51 l-32 -39 -90 93 c-81 82
-101 98 -197 145 -68 33 -108 58 -108 68 0 26 30 74 46 74 9 0 64 -24 123 -54z
m1669 42 c-3 -7 -17 -14 -31 -14 l-27 -1 27 4 c20 4 23 7 12 14 -11 7 -10 9 4
9 11 0 17 -6 15 -12z m139 6 c-3 -3 -12 -4 -19 -1 -8 3 -5 6 6 6 11 1 17 -2
13 -5z m-94 -31 c-7 -2 -19 -2 -25 0 -7 3 -2 5 12 5 14 0 19 -2 13 -5z m-78
-33 c-3 -5 -13 -10 -21 -10 -8 0 -14 5 -14 10 0 6 9 10 21 10 11 0 17 -4 14
-10z m-108 -46 c-3 -3 -12 -4 -19 -1 -8 3 -5 6 6 6 11 1 17 -2 13 -5z m4703
-1 c0 -5 -12 -14 -28 -20 l-27 -13 24 20 c25 22 31 24 31 13z m-130 -43 c0 -5
9 -10 20 -10 11 0 20 5 20 10 0 6 8 10 17 10 13 0 14 -3 5 -12 -14 -14 -107
-28 -146 -20 l-28 5 23 13 c28 16 89 18 89 4z m-3941 -44 c47 -25 86 -85 86
-133 0 -37 -6 -49 -41 -84 -49 -48 -107 -62 -149 -35 -36 23 -75 90 -75 127 0
40 32 92 73 118 38 24 68 26 106 7z m1387 -32 c35 -37 53 -84 46 -121 -6 -32
-66 -98 -102 -113 -83 -34 -218 72 -188 150 24 63 103 120 167 120 37 0 49 -5
77 -36z m-3617 -168 l123 -125 -21 -33 c-12 -18 -27 -43 -33 -55 -15 -30 -24
-29 -63 6 -59 52 -245 270 -245 288 0 5 14 23 31 41 29 30 33 31 57 18 15 -8
83 -71 151 -140z m5902 113 l21 -31 -35 -36 c-19 -20 -85 -89 -145 -152 l-110
-115 -36 37 c-30 31 -35 42 -30 64 13 52 250 264 295 264 10 0 28 -14 40 -31z
m-4149 -105 c21 -4 49 -19 65 -34 16 -16 32 -25 38 -20 18 14 54 -9 75 -49 26
-51 27 -142 2 -191 -9 -19 -40 -53 -69 -76 -85 -70 -168 -70 -255 -2 -90 71
-104 209 -33 325 28 48 83 62 177 47z m2369 -53 c22 -24 42 -63 54 -100 17
-58 17 -62 0 -108 -30 -84 -124 -153 -208 -153 -84 0 -170 87 -182 184 -18
145 102 250 255 224 35 -6 53 -17 81 -47z m-4475 -19 c52 -89 157 -247 197
-295 l40 -48 -43 -36 c-23 -20 -46 -47 -51 -59 -8 -23 -29 -34 -29 -16 0 5
-16 35 -36 68 -20 32 -68 118 -107 189 -38 72 -81 146 -94 165 -12 19 -23 40
-23 46 0 12 89 43 107 36 7 -2 24 -25 39 -50z m6534 31 c2 -2 -3 -16 -11 -31
-9 -15 -40 -67 -69 -117 -28 -49 -71 -115 -94 -145 -23 -30 -59 -84 -80 -119
l-39 -63 -51 53 -51 54 41 46 c23 25 86 112 140 193 l98 147 55 -7 c31 -3 58
-8 61 -11z m-1185 -162 c-6 -5 -25 10 -25 20 0 5 6 4 14 -3 8 -7 12 -15 11
-17z m52 -41 c14 -11 22 -20 18 -20 -4 0 -18 9 -32 20 -14 11 -22 20 -18 20 4
0 18 -9 32 -20z m-414 -54 c18 -7 45 -28 60 -45 23 -28 27 -41 26 -94 0 -34
-3 -56 -6 -49 -2 6 -11 12 -19 12 -9 0 -12 5 -9 10 3 6 -1 10 -10 10 -10 0
-13 -5 -9 -12 5 -8 2 -9 -12 -3 -10 4 -31 8 -47 10 -35 2 -47 15 -16 17 21 1
-85 16 -133 18 -10 1 -18 6 -18 11 0 6 5 7 10 4 6 -4 10 8 10 30 0 53 44 95
100 95 22 0 55 -6 73 -14z m-3449 -24 c73 -43 93 -120 58 -231 -15 -49 -21
-55 -62 -72 -89 -36 -161 -18 -214 54 -31 43 -35 145 -6 194 23 39 50 63 85
75 31 11 105 0 139 -20z m4132 -150 c-3 -6 -1 -12 6 -14 6 -2 13 -14 15 -27 2
-14 -1 -20 -7 -16 -6 4 -9 12 -7 18 2 7 -10 20 -27 29 -25 14 -27 17 -11 18
18 1 19 1 2 11 -9 5 -22 7 -27 4 -11 -7 -14 28 -4 38 10 10 67 -50 60 -61z
m-1803 -52 c-6 -94 -13 -130 -23 -130 -14 0 -12 174 2 205 11 24 13 25 19 8 4
-10 5 -47 2 -83z m281 33 c27 -8 29 -13 33 -68 6 -76 -6 -245 -17 -245 -5 0
-15 7 -24 15 -20 20 -36 19 -36 -2 -1 -10 -7 -29 -15 -43 -13 -23 -14 -10 -15
125 0 83 3 174 7 203 5 47 7 51 22 39 9 -8 29 -19 45 -24z m784 21 c-10 -10
-69 -13 -63 -4 4 6 20 10 37 10 17 0 29 -3 26 -6z m-2628 -43 c0 -4 -6 -13
-12 -19 -10 -10 -10 -15 2 -22 22 -14 30 -12 31 8 2 35 17 -33 18 -82 1 -43
-1 -47 -15 -35 -8 7 -13 21 -11 31 3 10 1 16 -4 12 -5 -3 -9 9 -9 25 0 22 -5
31 -16 31 -12 0 -14 -3 -6 -12 11 -15 0 -176 -17 -223 -5 -16 -12 -47 -14 -68
-11 -90 -17 -37 -17 152 0 200 0 202 23 210 22 9 47 4 47 -8z m3530 -21 c0 -5
-4 -10 -9 -10 -6 0 -13 5 -16 10 -3 6 1 10 9 10 9 0 16 -4 16 -10z m-24 -25
c15 -16 29 -23 39 -18 10 3 21 0 26 -8 14 -22 10 -36 -5 -16 -7 9 -16 17 -19
17 -4 0 -3 -8 0 -17 6 -16 5 -16 -10 -5 -9 8 -21 11 -26 7 -6 -3 -8 0 -5 9 3
9 -2 17 -15 21 -12 3 -21 13 -21 21 0 20 10 17 36 -11z m-1105 -86 c-12 -29
-25 -81 -23 -91 1 -4 -10 -3 -24 2 -14 6 -23 6 -20 1 4 -5 0 -11 -6 -14 -10
-3 -10 -7 0 -20 12 -14 8 -16 -35 -23 -26 -4 -40 -10 -29 -12 17 -4 16 -5 -4
-15 -33 -17 -40 -42 -10 -34 22 6 22 5 7 -10 -15 -15 -18 -15 -36 1 -20 18
-20 18 -16 -13 3 -27 1 -31 -21 -31 -14 0 -35 -11 -48 -25 -13 -13 -26 -22
-29 -19 -8 8 19 60 36 71 7 4 32 32 56 61 23 28 48 49 53 45 6 -3 8 -2 5 4 -7
11 140 159 149 151 2 -3 0 -16 -5 -29z m-4110 -2 c-10 -9 -11 -8 -5 6 3 10 9
15 12 12 3 -3 0 -11 -7 -18z m474 9 c59 -25 74 -85 27 -110 -16 -8 -57 -18
-92 -22 -42 -5 -69 -13 -82 -26 -26 -26 -32 -17 -32 46 0 106 77 154 179 112z
m4413 -28 c29 -32 44 -76 37 -110 -7 -29 -29 -38 -38 -15 -3 6 -6 3 -6 -9 -1
-11 -7 -21 -15 -21 -8 0 -13 8 -11 18 3 15 0 16 -19 8 -17 -8 -22 -17 -18 -35
11 -59 -107 1 -122 62 -10 37 10 87 42 106 41 26 123 24 150 -4z m-3738 -39
c21 -38 5 -37 -23 3 -23 33 -24 37 -7 28 11 -6 24 -20 30 -31z m-1195 1 c-10
-11 -20 -18 -23 -15 -7 6 18 35 31 35 5 0 2 -9 -8 -20z m1120 -38 c-6 -6 -44
40 -45 52 0 5 11 -4 25 -20 13 -15 22 -30 20 -32z m4266 21 c-8 -15 -10 -15
-11 -2 0 17 10 32 18 25 2 -3 -1 -13 -7 -23z m-4133 -49 c0 -23 -2 -24 -15
-11 -9 8 -12 20 -9 26 12 19 24 12 24 -15z m-78 -27 c0 -6 -9 -1 -20 11 -11
12 -20 24 -20 28 0 4 9 -1 20 -11 11 -10 20 -23 20 -28z m-1250 9 c0 -3 -4 -8
-10 -11 -5 -3 -10 -1 -10 4 0 6 5 11 10 11 6 0 10 -2 10 -4z m1431 -60 c8 -10
-11 -46 -23 -46 -5 0 -7 6 -5 13 1 6 -5 12 -13 11 -18 -1 -24 32 -9 42 6 4 5
12 -3 22 -7 10 1 6 17 -8 17 -14 33 -29 36 -34z m-1471 -1 c-7 -8 -17 -12 -22
-9 -5 3 -1 12 9 19 22 17 30 11 13 -10z m513 6 c26 -13 33 -21 22 -25 -8 -3
-27 6 -42 19 -34 30 -29 31 20 6z m5034 3 c12 -11 13 -18 4 -27 -8 -8 -15 -6
-25 8 -23 32 -6 47 21 19z m-5594 -75 c-6 -6 -9 -1 -7 13 3 33 6 36 11 14 3
-10 1 -22 -4 -27z m1567 15 c0 -16 -18 -18 -40 -4 -13 9 -13 11 -1 19 18 12
41 3 41 -15z m405 -433 c8 -23 7 -23 -16 -8 -13 8 -40 18 -59 22 -19 4 -38 9
-41 11 -3 2 1 38 8 81 8 43 15 87 16 99 1 11 8 21 15 21 8 0 12 -8 9 -19 -3
-10 -1 -16 4 -12 5 3 9 14 9 25 0 11 7 31 16 44 9 13 15 39 14 57 -1 18 -1 53
1 78 2 25 6 -49 9 -165 3 -115 10 -221 15 -234z m-2009 390 c16 13 18 2 5 -20
-5 -7 -13 -11 -17 -8 -5 3 -10 -6 -11 -20 0 -14 -5 -28 -11 -32 -5 -3 -15 -17
-22 -30 -7 -14 -17 -30 -22 -35 -11 -14 -47 -81 -90 -166 -18 -36 -35 -67 -38
-70 -3 -3 -19 -34 -37 -70 l-32 -64 2 56 c1 31 5 54 10 51 4 -2 7 3 7 12 0 9
5 13 11 9 8 -4 9 4 5 27 -3 20 -3 26 2 16 7 -18 8 -18 24 0 9 10 18 32 20 48
1 17 8 29 15 28 6 -2 15 7 19 20 4 12 10 24 15 27 4 3 4 12 -1 20 -8 13 -10
13 -10 -1 0 -9 -6 -22 -14 -28 -11 -10 -14 -7 -12 13 0 13 4 22 8 20 3 -2 8 2
11 8 3 10 7 10 20 -1 15 -12 17 -11 17 8 0 11 5 21 11 21 6 0 9 7 5 15 -7 19
3 47 15 39 5 -3 9 4 9 14 0 11 9 30 21 43 11 13 18 18 14 12 -3 -7 -1 -13 5
-13 6 0 10 8 8 18 -4 18 15 46 20 31 2 -6 10 -5 18 2z m3711 -43 c-2 -13 -4
-5 -4 17 -1 22 1 32 4 23 2 -10 2 -28 0 -40z m335 19 c-6 -7 -16 -24 -21 -38
-9 -23 -10 -23 -10 -2 -1 12 6 29 15 37 19 19 31 21 16 3z m-732 -37 c0 -13
-6 -20 -17 -19 -11 0 -13 3 -5 6 6 2 12 11 12 19 0 8 2 14 5 14 3 0 5 -9 5
-20z m-43 -42 c-3 -8 -6 -5 -6 6 -1 11 2 17 5 13 3 -3 4 -12 1 -19z m1508 -34
c-22 -20 -110 -90 -195 -157 -85 -67 -191 -156 -235 -197 -105 -100 -299 -268
-404 -350 -46 -36 -106 -88 -135 -117 -28 -28 -80 -72 -115 -98 l-63 -47 -32
30 c-17 16 -50 42 -74 56 -53 33 -59 48 -39 91 8 18 23 71 33 119 9 47 22 90
28 94 22 18 624 306 756 362 191 82 312 141 410 199 101 59 120 64 65 15z
m-3846 -1 c7 -16 43 -62 82 -103 39 -41 89 -97 111 -125 22 -27 105 -117 185
-199 150 -156 185 -202 162 -217 -7 -4 -19 -3 -26 3 -16 13 -17 -4 -1 -20 11
-11 7 -16 -8 -9 -3 1 -14 -14 -24 -33 -18 -35 -12 -64 17 -83 10 -6 10 -11 1
-21 -11 -11 -17 -6 -35 26 -13 22 -23 52 -22 67 0 22 2 23 8 7 5 -12 10 -16
14 -9 11 18 -23 86 -55 111 -10 7 -18 21 -18 31 0 20 -29 24 -43 6 -4 -5 -5 1
-3 15 3 27 -12 70 -26 70 -5 0 -5 -12 -2 -27 6 -27 6 -27 -20 7 -14 19 -29 43
-32 53 -4 9 -10 17 -14 17 -4 0 -11 11 -14 24 -3 14 -12 31 -19 38 -40 42 -56
72 -52 97 3 14 2 20 -1 13 -7 -16 -34 3 -34 24 0 8 -4 14 -9 14 -12 0 -34 57
-26 69 3 6 0 9 -8 5 -14 -5 -66 64 -100 135 -20 39 -20 41 -8 41 5 0 14 -12
20 -27z m4506 -12 c52 -30 75 -75 75 -148 0 -98 -26 -135 -109 -154 -45 -10
-102 13 -140 57 -55 63 -55 163 1 221 18 19 42 39 53 44 26 11 82 2 120 -20z
m-5042 5 c41 -17 72 -51 92 -100 14 -32 14 -47 4 -94 -21 -103 -37 -119 -140
-137 -38 -7 -98 12 -133 43 -27 24 -56 91 -56 132 0 41 29 108 56 131 43 37
122 49 177 25z m649 -37 c60 -36 282 -143 403 -196 103 -44 596 -295 635 -323
42 -30 52 -53 61 -140 4 -41 14 -95 23 -120 15 -44 15 -45 -6 -60 -12 -8 -42
-32 -67 -52 l-44 -37 -90 82 c-49 45 -108 97 -130 115 -23 18 -136 124 -252
236 -115 111 -248 233 -293 269 -46 37 -121 98 -165 136 -45 39 -95 81 -112
95 -41 34 -27 32 37 -5z m2291 11 c3 -11 3 -20 1 -20 -2 0 -8 9 -14 20 -6 11
-7 20 -2 20 6 0 12 -9 15 -20z m-3543 -111 c0 -11 -4 -17 -10 -14 -5 3 -10 -2
-10 -11 0 -14 -3 -15 -12 -6 -9 9 -7 16 7 32 23 25 25 25 25 -1z m3575 -26 c4
-27 13 -75 20 -108 7 -33 16 -82 20 -110 4 -27 10 -54 15 -60 4 -5 10 -22 14
-37 5 -24 1 -31 -26 -49 -18 -12 -45 -37 -60 -57 -19 -23 -28 -30 -28 -19 0
10 -6 17 -14 17 -20 0 -30 19 -28 52 1 15 -3 28 -9 28 -6 0 -17 6 -25 14 -7 8
-22 12 -32 9 -11 -2 -21 1 -24 9 -7 20 3 88 13 88 5 0 9 22 9 49 0 41 -3 50
-21 54 -26 7 -20 32 7 32 14 0 22 -10 28 -37 11 -42 25 -50 28 -15 0 12 4 2 8
-23 l7 -45 1 43 c1 23 7 42 12 42 6 0 10 10 10 23 0 19 33 117 46 139 12 19
23 4 29 -39z m1315 17 c0 -5 -2 -10 -4 -10 -3 0 -8 5 -11 10 -3 6 -1 10 4 10
6 0 11 -4 11 -10z m-1713 -72 c-2 -13 -4 -3 -4 22 0 25 2 35 4 23 2 -13 2 -33
0 -45z m1678 33 c3 -5 1 -12 -4 -15 -5 -3 -11 1 -15 9 -6 16 9 21 19 6z m-70
-53 c-15 -18 -35 -37 -44 -41 -14 -8 -14 -7 0 5 8 7 24 25 33 41 10 15 23 27
28 27 5 0 -2 -15 -17 -32z m-885 -7 c0 -5 -7 -11 -15 -15 -9 -3 -15 0 -15 9 0
8 7 15 15 15 8 0 15 -4 15 -9z m-713 -118 c-2 -16 -4 -3 -4 27 0 30 2 43 4 28
2 -16 2 -40 0 -55z m2232 36 c13 -23 12 -28 -11 -62 -13 -20 -51 -65 -84 -100
-32 -35 -81 -89 -107 -121 -40 -46 -52 -55 -63 -45 -12 10 -13 9 -8 -4 4 -12
1 -14 -15 -10 -15 4 -21 1 -21 -11 0 -19 -4 -20 -33 -5 -12 7 -19 8 -15 4 11
-12 -11 -35 -33 -35 -12 0 -19 -7 -19 -20 0 -13 -7 -20 -20 -20 -17 0 -19 -2
-8 -14 10 -10 16 -11 27 -3 10 9 13 7 9 -8 -4 -24 -40 -27 -50 -5 -5 12 -8 11
-13 -6 -4 -12 -19 -31 -35 -43 -26 -19 -29 -19 -34 -3 -2 9 -3 -3 -1 -28 2
-25 4 -49 4 -53 1 -5 7 -5 14 -1 6 4 2 -4 -11 -17 -18 -20 -25 -22 -41 -12
-16 10 -20 9 -24 -8 -5 -19 -11 -23 -61 -34 -19 -4 -32 -15 -39 -35 -6 -17
-15 -30 -20 -30 -5 0 -4 -7 3 -15 11 -13 6 -15 -32 -15 -25 0 -48 3 -51 7 -4
4 14 27 40 52 60 57 253 259 312 326 24 28 87 95 140 150 53 55 116 123 140
150 57 64 111 107 130 103 8 -2 22 -15 30 -29z m-714 -6 c-40 -61 -107 -143
-126 -154 -12 -6 -18 -17 -15 -25 3 -8 2 -13 -3 -10 -4 3 -16 -3 -26 -14 -10
-11 -23 -20 -29 -20 -6 0 -20 -13 -31 -29 -25 -35 -95 -96 -95 -83 0 6 48 59
106 119 58 59 133 138 166 176 65 72 81 84 53 40z m-3768 -175 c108 -106 209
-206 225 -223 17 -16 41 -53 54 -81 28 -59 38 -69 132 -132 82 -56 150 -128
135 -143 -6 -6 -29 -13 -53 -16 -40 -6 -44 -4 -96 48 -30 29 -54 61 -54 70 0
9 -7 22 -15 29 -9 7 -13 15 -11 17 7 7 -15 63 -25 63 -5 0 -9 7 -9 15 0 8 -9
15 -19 15 -10 0 -22 7 -25 16 -3 8 -10 12 -16 9 -5 -3 -10 -1 -10 5 0 6 -4 9
-9 5 -6 -3 -26 9 -45 26 -20 17 -42 32 -49 33 -14 2 -66 49 -207 188 -76 74
-160 176 -160 193 0 12 41 55 53 55 4 0 97 -87 204 -192z m-1017 132 c0 -11
-5 -19 -12 -17 -7 1 -17 -8 -23 -20 -13 -30 -20 -29 -20 1 0 13 3 22 7 20 4
-3 12 5 18 16 14 26 30 26 30 0z m3267 -42 c-3 -8 -6 -5 -6 6 -1 11 2 17 5 13
3 -3 4 -12 1 -19z m1530 0 c-3 -8 -6 -5 -6 6 -1 11 2 17 5 13 3 -3 4 -12 1
-19z m-4815 -10 c-7 -7 -12 -8 -12 -2 0 14 12 26 19 19 2 -3 -1 -11 -7 -17z
m446 -22 c94 -49 149 -185 107 -266 -43 -84 -187 -103 -256 -33 -32 32 -62
131 -52 172 27 112 118 170 201 127z m4352 9 c0 -3 -13 -31 -29 -63 -41 -81
-101 -170 -101 -149 0 18 -25 23 -35 7 -10 -17 -26 0 -16 17 4 9 6 23 4 33 -3
10 17 40 54 78 45 48 63 61 81 58 14 -3 22 0 22 10 0 8 5 14 10 14 6 0 10 -2
10 -5z m1118 -24 c42 -21 79 -58 82 -81 5 -37 0 -40 -67 -41 -89 -1 -195 -21
-201 -36 -5 -18 57 -71 92 -78 17 -4 46 -13 64 -21 18 -9 42 -12 54 -8 40 12
-7 -38 -49 -53 -87 -30 -137 -13 -190 65 -56 81 -52 119 18 193 30 31 63 61
74 67 31 17 82 14 123 -7z m-2605 -181 c14 0 18 -3 11 -10 -15 -15 -44 -2 -43
19 0 10 2 11 6 4 2 -7 14 -13 26 -13z m282 -30 c-8 -16 -15 -38 -15 -50 0 -24
-13 -26 -30 -5 -7 8 -19 15 -26 15 -15 0 -19 12 -7 23 3 4 12 2 19 -4 18 -15
48 -3 40 16 -3 8 3 19 12 24 24 15 24 14 7 -19z m-1795 10 c0 -5 -2 -10 -4
-10 -3 0 -8 5 -11 10 -3 6 -1 10 4 10 6 0 11 -4 11 -10z m1577 4 c-3 -3 -12
-4 -19 -1 -8 3 -5 6 6 6 11 1 17 -2 13 -5z m2610 -46 c-3 -7 -5 -2 -5 12 0 14
2 19 5 13 2 -7 2 -19 0 -25z m-1337 6 c0 -8 -4 -12 -10 -9 -5 3 -10 10 -10 16
0 5 5 9 10 9 6 0 10 -7 10 -16z m532 -26 c-9 -9 -12 -7 -12 12 0 19 3 21 12
12 9 -9 9 -15 0 -24z m-5349 -128 c-5 -29 -8 -31 -14 -15 -11 30 -10 37 4 29
10 -6 10 -4 0 7 -7 7 -13 20 -13 28 0 14 2 14 15 0 11 -11 13 -25 8 -49z
m5798 19 c12 -20 -47 -67 -75 -60 -5 1 -4 -4 2 -11 9 -11 7 -14 -9 -15 -11 -1
-17 2 -14 8 4 5 0 9 -7 9 -17 0 -50 -38 -53 -59 -4 -43 -31 -72 -90 -100 -55
-26 -62 -33 -60 -55 2 -17 -2 -26 -11 -26 -17 0 -17 1 -4 34 10 28 -6 49 -20
26 -4 -7 -13 -9 -19 -6 -7 5 27 45 91 106 167 158 186 173 227 166 19 -3 38
-11 42 -17z m-4824 -24 c89 -32 107 -35 204 -34 119 1 189 -9 167 -22 -22 -14
-196 -11 -201 4 -8 21 -41 -7 -47 -39 -9 -49 -91 -54 -180 -9 -14 7 -44 21
-67 30 -35 15 -43 23 -43 43 0 30 26 62 51 62 10 0 62 -16 116 -35z m-1023 6
c7 -11 -25 -71 -38 -71 -4 0 -5 7 -2 16 3 9 9 27 12 40 6 25 18 31 28 15z
m3571 -72 c114 -23 233 -70 332 -130 132 -81 162 -108 235 -216 110 -164 137
-228 183 -430 48 -212 18 -452 -79 -623 -17 -30 -79 -114 -96 -130 -3 -3 -21
-29 -40 -57 -39 -59 -53 -68 -82 -52 -18 10 -20 9 -15 -5 4 -10 1 -16 -8 -16
-8 0 -15 -4 -15 -9 0 -5 -12 -9 -27 -9 -16 0 -39 -5 -53 -10 l-25 -11 30 -1
30 -2 -34 -12 c-19 -7 -38 -22 -42 -34 -8 -22 -8 -22 19 -5 l27 17 -25 -25
c-13 -13 -28 -23 -32 -21 -5 1 -8 -2 -8 -8 0 -24 -159 -84 -295 -111 -211 -41
-421 -12 -615 85 -85 43 -130 75 -130 93 0 8 -7 16 -15 19 -13 5 -13 9 -3 22
11 13 10 14 -9 4 -30 -16 -32 -15 -28 9 6 29 10 32 32 21 136 -70 165 -76 83
-18 -36 26 -87 64 -115 86 l-49 39 -18 -27 c-13 -20 -18 -23 -18 -9 0 15 -13
21 -47 20 -6 0 -17 12 -24 28 -6 16 -16 29 -21 29 -5 0 -8 6 -5 13 2 6 -2 17
-9 22 -24 19 -102 180 -123 255 -12 41 -26 85 -32 98 -5 13 -9 82 -9 154 0
224 53 395 183 588 89 132 216 237 364 299 236 100 392 118 628 70z m-1552 1
c3 -11 1 -18 -4 -14 -5 3 -9 12 -9 20 0 20 7 17 13 -6z m-1512 0 c72 -20 134
-127 120 -207 -18 -93 -68 -142 -152 -146 -48 -2 -62 2 -98 27 -60 42 -91 99
-91 167 0 79 36 125 119 155 44 16 57 17 102 4z m5859 -37 c36 -41 60 -91 60
-126 0 -46 -49 -124 -97 -156 -64 -43 -114 -42 -179 2 -54 36 -62 53 -63 141
-1 53 2 63 33 101 45 54 87 74 157 75 53 0 59 -2 89 -37z m-653 -5 c-3 -8 -6
-5 -6 6 -1 11 2 17 5 13 3 -3 4 -12 1 -19z m-3637 -57 c0 -10 -7 -6 -20 14
-11 17 -20 35 -20 40 1 17 40 -36 40 -54z m2326 20 c-1 -18 -14 -44 -34 -66
-28 -30 -36 -34 -48 -24 -8 7 -11 16 -7 21 4 4 26 28 48 52 22 24 41 44 41 45
1 0 1 -12 0 -28z m275 -48 c-12 -20 -14 -14 -5 12 4 9 9 14 11 11 3 -2 0 -13
-6 -23z m-21 -48 c0 -8 -4 -15 -10 -15 -5 0 -7 7 -4 15 4 8 8 15 10 15 2 0 4
-7 4 -15z m770 -47 c0 -9 4 -8 10 2 8 12 10 11 10 -7 0 -15 5 -21 14 -17 7 3
16 -2 20 -12 6 -15 1 -16 -45 -11 -63 8 -67 11 -44 37 21 23 35 26 35 8z
m-5518 -143 c-6 -34 -12 -32 -12 6 0 16 4 28 9 25 4 -3 6 -17 3 -31z m38 25
c0 -5 -4 -10 -10 -10 -5 0 -10 5 -10 10 0 6 5 10 10 10 6 0 10 -4 10 -10z
m4835 -15 c61 -14 189 -39 285 -56 96 -16 225 -41 287 -55 61 -13 194 -37 295
-53 239 -39 343 -57 453 -81 50 -10 142 -28 205 -40 63 -11 151 -27 195 -35
44 -8 125 -23 180 -34 150 -29 320 -61 415 -76 47 -8 119 -21 160 -30 201 -40
427 -63 830 -85 175 -9 246 -20 205 -33 -54 -17 -880 6 -1195 32 -63 6 -290
13 -505 16 -214 3 -446 10 -515 15 -69 5 -228 10 -354 10 -126 0 -226 3 -223
7 4 3 31 5 61 4 30 -1 57 3 61 9 3 5 14 10 24 10 19 0 48 27 39 36 -5 5 -171
34 -193 34 -5 0 -3 -5 5 -10 11 -7 1 -10 -35 -11 -36 0 -44 -3 -30 -8 16 -7
12 -10 -25 -19 l-45 -10 43 -1 c26 -1 41 -5 37 -11 -3 -5 -1 -10 4 -10 6 0 11
-4 11 -8 0 -4 -195 -8 -434 -8 l-433 0 -12 81 c-7 44 -16 100 -20 125 -5 25
-9 57 -9 72 0 24 -53 87 -74 88 -5 0 -8 6 -8 14 0 12 184 146 200 146 3 0 55
-11 115 -25z m-2611 -52 c47 -32 86 -64 86 -71 0 -30 -53 -59 -160 -89 -36 -9
-57 -19 -48 -21 9 -2 26 2 38 8 11 6 25 8 32 4 6 -4 26 -8 44 -9 19 -1 36 -4
38 -6 2 -2 -5 -47 -16 -99 -11 -52 -22 -111 -26 -130 l-7 -35 -420 -3 c-736
-4 -936 -8 -1095 -20 -85 -6 -375 -16 -645 -22 -504 -11 -1095 -28 -1175 -35
-250 -19 -410 -17 -410 5 0 8 47 13 215 24 68 5 117 10 180 21 17 2 80 9 140
15 61 5 162 17 225 25 63 8 158 19 210 25 149 16 541 85 795 139 77 16 178 35
225 41 47 6 150 24 230 40 80 16 213 38 295 50 223 31 337 50 465 76 63 14
196 38 295 54 210 35 297 50 345 61 19 4 40 7 47 8 6 1 50 -25 97 -56z m5271
-103 c106 -33 185 -62 238 -84 28 -12 37 -22 37 -40 0 -37 -22 -49 -82 -42
-87 11 -179 28 -253 48 -38 10 -84 18 -102 18 -17 0 -34 4 -37 8 -3 5 -8 46
-12 90 l-7 82 64 -26 c35 -14 105 -38 154 -54z m-7981 25 c13 -20 15 -37 10
-73 -7 -41 -9 -44 -15 -22 l-7 25 -1 -26 c-1 -24 -6 -26 -78 -38 -226 -38
-402 -56 -415 -43 -24 24 0 59 63 86 33 14 68 26 76 26 9 0 30 4 47 9 17 6 84
22 149 37 64 14 120 30 123 35 10 17 32 9 48 -16z m8390 -490 c-4 -8 -10 -15
-15 -15 -5 0 -9 7 -9 15 0 8 7 15 15 15 9 0 12 -6 9 -15z m-54 -5 c0 -5 -7
-10 -15 -10 -8 0 -15 5 -15 10 0 6 7 10 15 10 8 0 15 -4 15 -10z m-355 -30 c3
5 16 10 28 9 19 -1 18 -2 -8 -14 -34 -16 -77 -18 -126 -8 -33 8 -33 8 16 13
28 3 58 2 67 -2 9 -5 20 -4 23 2z m-7367 -7 c-27 -2 -69 -2 -95 0 -27 2 -5 3
47 3 52 0 74 -1 48 -3z m7042 -2 c0 -9 -4 -9 -185 -11 -86 -1 -132 -6 -137
-13 -6 -9 -11 -8 -18 3 -5 8 -10 11 -10 7 0 -4 -9 -3 -20 3 -11 6 -20 7 -20 2
0 -5 -24 -9 -54 -8 -36 0 -61 -5 -73 -15 -10 -9 -26 -19 -35 -22 -18 -6 -21
-47 -3 -59 5 -4 -3 -8 -20 -8 -24 0 -27 2 -15 11 12 8 11 9 -5 7 -17 -3 -19 2
-17 27 4 29 -7 31 -12 2 -1 -8 -8 -23 -16 -33 -14 -16 -13 -17 8 -12 28 8 29
-3 1 -20 -13 -9 -35 -11 -65 -6 -24 3 -47 5 -51 5 -5 -1 -11 8 -14 21 -3 13
-11 22 -18 20 -7 -1 -10 2 -6 8 3 6 11 8 16 5 5 -4 9 -1 9 4 0 6 3 10 8 10 4
-1 18 -1 32 0 l25 1 -29 15 c-16 9 -37 15 -45 14 -42 -4 -71 2 -71 15 0 10 39
15 178 23 230 12 662 15 662 4z m-913 -27 c-3 -3 -12 -4 -19 -1 -8 3 -5 6 6 6
11 1 17 -2 13 -5z m-247 -14 l25 -8 -25 -2 c-23 -1 -23 -2 -5 -10 13 -5 14 -9
5 -9 -8 0 -24 4 -35 9 l-20 9 20 1 20 1 -20 9 c-25 11 1 11 35 0z m-362 -17
c-10 -2 -28 -2 -40 0 -13 2 -5 4 17 4 22 1 32 -1 23 -4z m119 0 c-20 -2 -52
-2 -70 0 -17 2 0 4 38 4 39 0 53 -2 32 -4z m-329 -10 c-21 -2 -57 -2 -80 0
-24 2 -7 4 37 4 44 0 63 -2 43 -4z m1202 -18 c-7 -9 -15 -13 -18 -10 -3 2 1
11 8 20 7 9 15 13 18 10 3 -2 -1 -11 -8 -20z m-1503 -1 c-3 -3 -12 -4 -19 -1
-8 3 -5 6 6 6 11 1 17 -2 13 -5z m76 -1 c-7 -2 -19 -2 -25 0 -7 3 -2 5 12 5
14 0 19 -2 13 -5z m-473 -23 c-36 -3 -71 -10 -78 -14 -8 -4 -12 -1 -12 11 0
16 8 18 77 14 l78 -5 -65 -6z m233 13 c-18 -2 -48 -2 -65 0 -18 2 -4 4 32 4
36 0 50 -2 33 -4z m1071 -32 c3 -5 -1 -11 -9 -15 -9 -3 -15 0 -15 9 0 16 16
20 24 6z m332 -22 c5 -8 8 -8 13 0 5 7 17 7 36 2 l30 -9 -27 -1 c-16 -1 -28
-5 -28 -11 0 -5 -20 -10 -45 -10 -25 0 -45 4 -45 10 0 5 7 7 15 4 8 -4 17 1
21 10 7 19 20 21 30 5z m-91 -19 c3 -5 -3 -10 -15 -10 -12 0 -18 5 -15 10 3 6
10 10 15 10 5 0 12 -4 15 -10z m1513 -37 c6 -56 -60 -94 -203 -119 -22 -4 -44
-10 -50 -14 -11 -8 -83 -25 -102 -23 -7 0 -10 -3 -7 -8 8 -14 -6 -10 -22 5
-20 21 -18 23 19 22 17 0 33 3 34 8 0 5 8 13 17 18 9 5 13 14 10 20 -9 14 15
28 50 28 21 0 27 4 22 15 -3 9 0 15 9 15 8 0 14 3 14 8 -4 22 3 32 24 33 12 0
38 7 57 14 19 8 55 13 80 12 43 -2 45 -4 48 -34z m-8788 1 c0 -8 -5 -12 -10
-9 -6 4 -8 11 -5 16 9 14 15 11 15 -7z m494 -73 c4 -5 0 -12 -6 -15 -7 -3 -1
-4 13 -1 29 5 30 3 45 -114 7 -53 7 -53 -17 -46 -13 4 -29 13 -35 21 -6 8 -20
14 -30 14 -10 0 -26 5 -34 10 -12 8 -12 12 -2 18 10 7 10 11 -3 22 -13 11 -15
10 -10 -3 10 -24 -9 -28 -54 -10 -42 16 -42 17 -19 30 l23 14 -27 -5 c-15 -4
-30 -2 -33 4 -8 14 31 13 72 -2 25 -9 36 -9 45 0 9 9 7 13 -8 18 -58 18 -61
21 -30 29 20 6 31 4 34 -3 5 -17 22 -15 22 2 0 22 43 35 54 17z m-204 -61 c0
-5 -2 -10 -4 -10 -3 0 -8 5 -11 10 -3 6 -1 10 4 10 6 0 11 -4 11 -10z m2960
-52 c0 -20 -4 -26 -15 -22 -13 6 -18 47 -7 68 7 13 22 -17 22 -46z m5088 -6
c6 -2 12 1 12 7 0 6 7 11 15 11 29 0 14 -15 -40 -42 -55 -26 -55 -26 -55 -5 0
12 9 28 20 35 11 7 21 22 21 35 1 17 3 16 8 -7 3 -16 12 -31 19 -34z m22 46
c0 -4 -4 -8 -9 -8 -5 0 -12 -8 -14 -17 -3 -12 -5 -9 -6 8 -1 17 4 26 14 26 8
0 15 -4 15 -9z m-5160 -37 c0 -4 -7 -8 -15 -8 -16 0 -20 9 -9 20 8 8 24 -1 24
-12z m4652 -32 c22 -16 29 -28 25 -46 -2 -13 0 -26 4 -29 5 -3 9 -18 9 -33 0
-16 7 -42 15 -57 16 -32 20 -70 7 -76 -15 -5 -23 -68 -9 -68 6 0 0 -10 -14
-23 -28 -23 -45 -57 -29 -57 6 0 10 -5 10 -11 0 -5 -5 -7 -12 -3 -8 5 -9 2 -5
-10 4 -10 1 -19 -8 -22 -8 -4 -15 -11 -15 -18 0 -6 -13 -26 -29 -44 -29 -31
-30 -31 -34 -9 -3 13 -5 7 -6 -15 0 -21 -5 -38 -11 -38 -5 0 -9 -3 -8 -7 5
-21 -50 -203 -117 -393 -22 -61 -69 -156 -130 -265 -28 -49 -61 -110 -74 -135
-36 -66 -151 -238 -206 -306 -135 -166 -333 -378 -466 -496 -183 -164 -460
-346 -684 -450 -172 -80 -394 -172 -480 -199 -49 -15 -117 -38 -150 -49 -65
-23 -463 -105 -561 -116 -60 -6 -61 -6 -66 20 -5 23 -1 26 31 32 164 29 299
60 422 98 210 66 441 151 544 201 554 269 644 324 925 572 179 157 265 253
436 488 299 409 519 930 609 1445 17 96 30 140 41 140 3 0 19 -10 36 -21z
m-4655 -35 c-3 -3 -12 -4 -19 -1 -8 3 -5 6 6 6 11 1 17 -2 13 -5z m4210 -56
c86 -80 87 -216 3 -292 -46 -41 -75 -51 -132 -43 -81 11 -168 100 -168 172 0
41 41 124 77 158 54 50 169 53 220 5z m-5812 -10 c122 -85 121 -224 -2 -300
-53 -33 -99 -36 -152 -8 -89 45 -136 163 -96 239 8 16 33 45 57 65 36 31 48
36 94 36 42 0 61 -6 99 -32z m-551 -135 c10 -32 56 -177 103 -323 84 -260 152
-417 284 -657 156 -284 456 -653 729 -895 218 -193 361 -285 722 -463 286
-142 452 -209 618 -250 227 -58 259 -65 370 -82 l115 -18 3 -39 c3 -36 2 -38
-20 -31 -13 4 -86 20 -163 36 -259 53 -340 72 -420 100 -44 16 -86 29 -93 29
-13 0 -166 59 -239 91 -23 11 -45 19 -48 19 -13 0 -297 142 -391 196 -142 80
-342 221 -449 315 -219 193 -267 243 -397 419 -31 41 -64 84 -75 95 -31 33
-167 198 -195 235 -14 19 -39 60 -56 91 -16 30 -55 100 -87 155 -100 172 -174
325 -216 444 -98 281 -157 541 -129 574 7 9 14 16 15 16 1 0 10 -26 19 -57z
m1266 27 c0 -5 -7 -7 -16 -3 -12 4 -15 1 -13 -12 2 -10 19 -23 36 -29 l33 -11
-39 -35 c-22 -19 -45 -40 -53 -46 -7 -5 -47 -41 -88 -78 -89 -81 -211 -166
-238 -166 -27 0 -55 34 -47 59 12 38 196 197 330 285 69 45 95 55 95 36z
m1085 -10 c3 -11 27 -37 52 -59 l46 -39 -28 -48 c-31 -55 -955 -984 -978 -984
-8 0 47 95 73 125 9 11 41 61 70 110 29 50 59 97 65 105 26 31 213 358 345
600 85 157 85 157 160 165 36 4 88 15 115 25 67 23 73 23 80 0z m2108 -5 c42
-17 97 -19 147 -5 45 13 55 2 79 -80 19 -66 81 -180 153 -280 67 -94 141 -210
207 -325 35 -60 84 -144 109 -185 78 -129 141 -240 137 -240 -7 0 -990 990
-993 1000 -2 5 19 32 47 60 28 28 51 55 51 60 0 14 22 12 63 -5z m-2679 -51
c11 -4 13 -11 5 -31 -11 -30 -26 -45 -67 -70 -17 -11 -54 -40 -82 -66 -27 -25
-50 -43 -50 -39 0 4 -4 2 -8 -3 -4 -6 -20 -17 -35 -25 -16 -8 -36 -27 -45 -42
-9 -15 -22 -28 -29 -28 -7 0 -10 -7 -6 -15 3 -9 2 -15 -3 -13 -11 3 -54 -41
-76 -78 -9 -16 -24 -31 -33 -32 -16 -4 -25 -10 -72 -53 -32 -27 -113 -122
-113 -131 0 -4 5 -8 10 -8 6 0 10 -5 10 -11 0 -6 -9 -8 -21 -4 -14 5 -19 3
-15 -3 7 -12 -30 -55 -57 -65 -11 -4 -16 -3 -12 3 3 6 -3 10 -14 10 -10 0 -21
-6 -24 -12 -3 -10 -9 -9 -22 3 -31 30 -37 22 255 326 66 69 125 125 265 252
22 20 63 54 90 75 28 21 54 44 58 52 8 14 62 19 91 8z m3221 -31 c19 -9 35
-20 35 -24 0 -4 8 -8 18 -8 9 0 44 -7 77 -15 76 -20 312 -21 410 -2 68 14 127
7 215 -22 17 -6 30 -8 82 -16 87 -14 112 -52 69 -103 -23 -27 -56 -29 -167 -9
-44 8 -169 18 -278 21 -187 7 -202 9 -250 33 -29 15 -65 25 -83 24 -18 -2 -33
1 -33 6 0 5 -8 9 -17 9 -76 -1 -81 2 -96 46 -8 23 -18 50 -22 60 -9 21 -5 21
40 0z m1848 -105 c-3 -16 -9 -28 -14 -28 -4 0 -3 14 3 31 12 36 18 35 11 -3z
m-13 -90 c0 -16 -3 -19 -11 -11 -6 6 -8 16 -5 22 11 17 16 13 16 -11z m-18
-45 c-6 -3 -10 -9 -7 -13 3 -5 1 -11 -5 -15 -11 -7 -13 15 -4 40 5 12 9 14 18
4 8 -8 8 -13 -2 -16z m-1591 6 c11 -5 17 -14 14 -19 -3 -5 3 -11 13 -14 10 -3
40 -26 67 -51 28 -25 53 -45 58 -45 4 0 7 -6 7 -13 0 -11 33 -47 43 -47 2 0 4
7 4 15 0 8 -6 15 -13 15 -14 0 -24 23 -24 58 l0 25 25 -23 c29 -27 33 -42 8
-33 -11 4 -14 3 -9 -6 4 -6 15 -9 25 -6 12 3 38 -14 82 -52 104 -94 193 -186
212 -221 l19 -33 -28 -36 c-25 -32 -28 -34 -37 -17 -6 11 -16 23 -24 27 -7 4
-13 15 -13 23 0 8 -4 13 -8 10 -12 -7 -62 39 -62 57 0 9 -6 14 -13 11 -7 -2
-19 7 -27 21 -7 14 -18 25 -23 25 -12 0 -297 287 -297 300 0 5 -7 16 -16 24
-18 18 -11 21 17 5z m-4563 -24 c71 -30 112 -86 112 -154 0 -54 -12 -82 -56
-130 -34 -38 -40 -41 -88 -41 -75 1 -125 38 -149 110 -21 63 -14 109 24 164
43 64 90 79 157 51z m5510 0 c80 -32 117 -146 72 -220 -25 -41 -85 -82 -132
-90 -69 -13 -142 30 -168 100 -24 65 26 166 102 204 51 25 75 26 126 6z m580
-16 c-3 -8 -7 -3 -11 10 -4 17 -3 21 5 13 5 -5 8 -16 6 -23z m-2705 -39 c4
-30 11 -57 16 -60 4 -3 11 -17 14 -32 4 -14 18 -40 32 -56 l25 -30 -24 11
c-25 12 -40 40 -75 142 -24 68 -26 88 -9 83 7 -3 16 -29 21 -58z m-189 -147
c29 -36 43 -83 25 -83 -5 0 -9 6 -9 13 0 8 -4 7 -10 -3 -7 -11 -8 -5 -3 19 4
22 3 32 -4 28 -8 -5 -18 7 -41 56 -10 21 17 2 42 -30z m-670 -1 c3 -5 -9 -9
-27 -9 -26 -1 -28 1 -12 7 27 11 33 12 39 2z m47 1 c14 -178 21 -346 27 -588
4 -165 11 -305 15 -312 11 -17 34 -329 47 -618 6 -137 15 -288 20 -335 12
-108 39 -418 43 -490 l2 -55 12 35 c8 27 11 30 12 13 1 -24 25 -31 36 -13 4 7
14 3 24 -9 l18 -21 11 23 c9 17 10 7 5 -48 -3 -38 -9 -72 -13 -75 -4 -3 -8
-29 -9 -57 -2 -60 -18 -209 -56 -523 -28 -237 -41 -355 -50 -474 -8 -91 -21
-89 -28 4 -8 118 -37 424 -47 500 -5 41 -17 134 -25 207 -19 158 -23 179 -70
403 -20 96 -40 195 -44 220 -5 25 -21 108 -36 185 -15 77 -33 178 -40 225 -12
76 -25 142 -55 280 -6 25 -17 90 -25 145 -35 235 -73 453 -79 464 -5 8 -26
123 -51 281 -8 47 -23 137 -35 200 -11 63 -25 142 -31 175 -5 33 -17 81 -25
107 -19 58 -14 76 31 107 l35 24 27 -29 c15 -16 51 -65 80 -109 29 -44 70
-105 91 -135 21 -30 60 -100 87 -155 27 -55 52 -102 56 -105 4 -3 10 -22 14
-42 4 -21 11 -36 15 -33 11 7 3 40 -26 103 -26 56 -30 77 -14 67 13 -8 13 35
0 55 -8 13 -11 11 -16 -7 -9 -34 -26 -16 -18 20 9 41 26 57 47 45 14 -7 17 -4
18 19 l1 28 9 -30 c5 -19 6 10 3 75 -9 194 -9 260 -1 260 4 0 7 -3 8 -7z m709
-83 c12 -7 13 -13 3 -28 -6 -11 -14 -40 -18 -65 -4 -25 -13 -48 -21 -51 -16
-6 -19 17 -4 44 7 13 7 21 0 25 -5 3 -10 13 -10 21 0 8 5 12 10 9 6 -4 7 -11
4 -17 -4 -6 -2 -8 3 -5 6 4 13 18 15 31 4 22 3 24 -14 15 -17 -9 -18 -8 -6 10
14 24 17 24 38 11z m-1850 -13 c0 -2 -10 -12 -22 -23 l-23 -19 19 23 c18 21
26 27 26 19z m2550 -7 c8 -5 11 -10 5 -10 -5 0 -17 5 -25 10 -8 5 -10 10 -5
10 6 0 17 -5 25 -10z m-2262 -18 c8 -6 0 -15 -27 -30 -44 -25 -83 -29 -75 -8
3 8 15 11 30 8 14 -2 24 0 24 7 0 6 3 10 8 10 4 -1 14 -1 22 0 13 1 13 2 0 11
-8 5 -10 10 -5 10 6 0 16 -4 23 -8z m1502 4 c0 -3 -4 -8 -10 -11 -5 -3 -10 -1
-10 4 0 6 5 11 10 11 6 0 10 -2 10 -4z m-1836 -47 c-34 -13 -50 -11 -29 5 11
8 26 11 34 8 12 -4 11 -7 -5 -13z m2449 -16 c7 -37 3 -39 -22 -14 -12 12 -27
21 -33 22 -7 1 -2 5 12 9 37 12 37 12 43 -17z m-2233 3 c0 -7 -11 -16 -25 -18
-13 -3 -22 -1 -19 3 3 5 12 9 20 9 8 0 14 5 14 10 0 6 2 10 5 10 3 0 5 -6 5
-14z m2395 -5 c-2 -9 -4 -19 -4 -23 -1 -5 -10 -8 -21 -8 -22 0 -29 35 -7 43
24 8 35 4 32 -12z m-2575 -1 c10 -6 11 -10 3 -10 -7 0 -13 -5 -13 -11 0 -6 7
-9 14 -6 10 4 13 1 9 -9 -6 -16 1 -18 26 -4 10 5 33 12 51 15 29 5 32 4 20
-10 -7 -8 -15 -13 -18 -11 -2 3 -18 -2 -34 -10 -22 -12 -33 -13 -43 -4 -19 16
-40 3 -25 -15 8 -10 0 -17 -37 -31 -26 -10 -77 -35 -112 -56 -35 -20 -68 -35
-73 -32 -4 3 -8 1 -8 -4 0 -9 -45 -30 -78 -38 -8 -1 -21 -9 -30 -17 -10 -8
-32 -21 -49 -30 -31 -14 -33 -14 -33 2 0 10 19 31 43 47 23 16 44 31 47 34 22
23 82 60 92 58 7 -2 12 4 11 12 -1 8 15 28 37 43 22 16 40 23 40 16 0 -6 8 -9
19 -6 15 4 19 0 16 -15 -3 -12 1 -18 8 -15 7 2 11 16 9 31 -3 19 0 26 7 22 6
-4 11 -16 11 -27 0 -22 10 -25 28 -7 9 9 8 14 -4 22 -12 9 -12 15 -2 38 11 24
21 31 48 37 3 0 12 -4 20 -9z m-90 -20 c0 -5 -2 -10 -4 -10 -3 0 -8 5 -11 10
-3 6 -1 10 4 10 6 0 11 -4 11 -10z m2557 4 c13 -4 20 -10 17 -15 -3 -5 4 -9
15 -9 12 0 21 -4 21 -10 0 -13 -10 -13 -48 1 -18 6 -30 15 -27 19 3 5 -1 11
-7 13 -18 8 3 8 29 1z m-2597 -34 c-8 -5 -17 -7 -19 -4 -3 3 1 9 9 14 8 5 17
7 19 4 3 -3 -1 -9 -9 -14z m2866 -7 c6 -13 13 -20 16 -17 3 3 17 -6 31 -20 29
-29 15 -35 -21 -10 -20 14 -27 12 -23 -9 1 -5 -3 -6 -9 -2 -6 3 -8 11 -5 16 4
5 -3 9 -15 9 -12 0 -18 5 -15 10 3 6 2 10 -4 10 -6 0 -15 9 -21 21 -11 19 -9
20 22 17 22 -2 36 -10 44 -25z m-926 -13 c0 -5 -4 -10 -10 -10 -5 0 -10 5 -10
10 0 6 5 10 10 10 6 0 10 -4 10 -10z m-2956 -31 c68 -54 89 -180 40 -239 -79
-93 -210 -77 -263 33 -26 54 -27 97 -1 146 31 62 63 81 135 81 48 0 68 -5 89
-21z m5047 -2 c45 -30 59 -60 59 -132 0 -70 -22 -114 -72 -145 -46 -28 -80
-33 -128 -20 -68 18 -90 48 -90 120 0 149 128 247 231 177z m-2861 -7 c0 -5
-2 -10 -4 -10 -3 0 -8 5 -11 10 -3 6 -1 10 4 10 6 0 11 -4 11 -10z m-25 -20
c3 -5 1 -10 -4 -10 -6 0 -11 5 -11 10 0 6 2 10 4 10 3 0 8 -4 11 -10z m792
-12 c-3 -8 -6 -5 -6 6 -1 11 2 17 5 13 3 -3 4 -12 1 -19z m1063 -20 c0 -10
-36 7 -45 22 -4 6 5 5 19 -2 14 -6 26 -15 26 -20z m-2420 2 c0 -5 -5 -10 -11
-10 -5 0 -7 5 -4 10 3 6 8 10 11 10 2 0 4 -4 4 -10z m1706 -12 c36 -12 68 -27
70 -33 3 -6 3 -76 2 -155 -3 -143 -3 -144 -18 -100 -16 49 -39 82 -41 58 -1
-16 -19 45 -26 92 -3 19 -9 37 -13 40 -8 5 -50 120 -44 120 2 0 33 -10 70 -22z
m765 -25 c13 -15 12 -15 -8 -4 -24 12 -29 21 -14 21 5 0 15 -7 22 -17z m1552
-71 c-2 -10 -12 -28 -23 -42 l-18 -24 1 37 c0 20 5 37 10 37 4 0 6 4 3 9 -4 5
2 7 13 4 11 -3 17 -11 14 -21z m-1989 -125 c-1 -9 1 -15 5 -13 11 7 35 -17 80
-77 23 -32 56 -71 73 -87 18 -17 27 -34 22 -41 -4 -7 -3 -9 3 -6 11 7 73 -55
73 -72 0 -6 7 -11 16 -11 10 0 14 -5 10 -16 -3 -8 -2 -13 2 -10 5 3 16 -4 25
-15 20 -23 19 -23 -21 -3 -18 8 -35 13 -39 11 -5 -2 -17 4 -27 14 -11 11 -14
19 -8 19 7 0 12 7 12 16 0 10 -6 14 -15 10 -16 -6 -80 18 -90 34 -4 6 -12 7
-18 3 -22 -14 -36 -11 -30 5 5 12 2 14 -11 9 -10 -4 -15 -3 -11 3 3 6 1 10 -5
10 -24 0 -120 130 -120 163 0 5 12 25 26 44 26 35 50 39 48 10z m-2319 -3 c11
-12 14 -25 9 -47 -9 -44 -27 -70 -142 -208 -125 -151 -163 -192 -220 -243
l-45 -40 -28 32 c-39 43 -37 71 7 113 20 18 77 79 126 134 153 171 252 274
265 274 6 1 19 -6 28 -15z m4232 -2 c-1 -12 -8 -18 -21 -17 -13 1 -23 -6 -28
-19 -5 -19 -6 -19 -8 4 -1 23 -2 23 -10 5 -7 -15 -9 -16 -9 -4 -1 9 6 22 15
30 13 10 17 10 24 -1 7 -12 10 -11 16 3 8 23 23 22 21 -1z m-31 -74 c-9 -12
-16 -17 -16 -10 0 18 24 54 28 42 2 -5 -4 -20 -12 -32z m-31 -17 c3 -19 2 -20
-18 -10 -29 15 -37 24 -14 16 12 -4 17 -1 17 10 0 22 10 11 15 -16z m-2109
-58 c-11 -11 -17 4 -9 23 7 18 8 18 11 1 2 -10 1 -21 -2 -24z m24 -90 c0 -42
-3 -54 -11 -46 -6 6 -18 9 -25 6 -19 -7 -18 21 2 38 10 8 13 21 9 36 -4 16 -1
23 10 23 12 0 15 -13 15 -57z m-3114 15 c61 -65 74 -89 74 -134 0 -78 -66
-125 -144 -103 -46 13 -74 47 -87 104 -10 44 -9 56 6 86 22 44 64 79 96 79 16
0 36 -12 55 -32z m4441 7 c12 -8 29 -35 38 -59 14 -37 15 -50 5 -80 -34 -104
-151 -159 -214 -101 -72 67 -57 171 33 232 40 27 106 31 138 8z m-1392 -125
c6 -72 7 -84 5 -120 -1 -14 -1 -67 -1 -118 2 -94 -10 -141 -38 -150 -11 -4
-12 2 -7 23 12 46 25 224 26 334 0 57 2 102 4 100 2 -2 7 -33 11 -69z m655
-61 c0 -6 -4 -7 -10 -4 -5 3 -10 11 -10 16 0 6 5 7 10 4 6 -3 10 -11 10 -16z
m-590 -34 c0 -14 -2 -25 -4 -25 -2 0 -6 11 -8 25 -3 14 -1 25 3 25 5 0 9 -11
9 -25z m-2663 -52 c45 -21 89 -82 98 -133 9 -55 -19 -143 -57 -175 -40 -34
-108 -42 -150 -18 -71 41 -111 180 -72 254 17 33 97 89 127 89 10 0 35 -8 54
-17z m3527 -13 c47 -42 73 -118 57 -169 -10 -35 -59 -101 -75 -101 -10 0 2 72
14 84 6 6 10 27 10 47 0 40 -3 42 -71 54 -34 6 -69 -11 -69 -34 0 -3 -14 -12
-30 -18 -22 -8 -32 -20 -36 -42 -7 -34 -18 -40 -28 -15 -19 49 19 151 73 197
47 39 108 38 155 -3z m-2694 -142 c0 -141 -1 -151 -16 -136 -13 13 -16 35 -15
105 1 48 4 98 6 111 13 63 16 72 20 72 3 0 5 -68 5 -152z m-2110 -29 c0 -10
-109 -156 -143 -193 -15 -16 -48 -64 -74 -108 l-46 -78 -52 0 c-28 0 -54 3
-58 6 -7 8 9 41 55 111 18 28 71 125 118 216 l85 165 58 -56 c31 -31 57 -60
57 -63z m6048 71 c7 -14 24 -43 38 -65 13 -22 51 -94 84 -160 33 -66 71 -140
85 -165 21 -38 23 -47 11 -58 -7 -8 -28 -15 -46 -15 -30 -2 -37 4 -86 78 -103
153 -159 227 -191 251 -30 23 -44 54 -25 54 5 0 26 25 48 55 42 59 61 65 82
25z m-1820 -100 c50 -23 81 -79 82 -148 0 -58 -43 -145 -94 -188 -107 -92
-262 5 -268 167 -1 44 14 74 63 122 70 68 138 83 217 47z m-2351 -27 c37 -33
101 -126 109 -159 7 -27 -36 -127 -69 -162 -66 -71 -159 -69 -229 5 -73 77
-75 184 -5 269 65 78 138 96 194 47z m-1675 -150 c21 -20 38 -42 38 -48 0 -13
-221 -247 -259 -275 l-29 -20 -26 40 c-32 49 -32 53 1 98 45 60 215 242 227
242 5 0 27 -17 48 -37z m5805 -257 c20 -38 4 -76 -31 -76 -42 0 -306 226 -306
262 0 4 17 16 39 27 21 11 41 26 44 34 6 17 230 -201 254 -247z m-2740 222
c-3 -8 -6 -5 -6 6 -1 11 2 17 5 13 3 -3 4 -12 1 -19z m-10 -80 c-3 -8 -6 -5
-6 6 -1 11 2 17 5 13 3 -3 4 -12 1 -19z m479 -43 c99 -76 77 -207 -43 -255
-43 -16 -75 -7 -124 37 -78 70 -83 136 -16 201 61 59 121 64 183 17z m-1386 3
c19 -13 45 -45 59 -71 l24 -48 -21 -45 c-22 -45 -98 -104 -131 -104 -28 1 -95
55 -118 95 -28 49 -29 81 -3 123 43 69 128 92 190 50z m-1818 -161 c-7 -16
-264 -173 -389 -238 l-92 -48 -7 44 c-3 24 -3 48 0 54 4 5 42 31 85 57 53 31
113 81 182 150 l103 103 61 -57 c34 -31 59 -60 57 -65z m5006 48 c34 -36 239
-179 295 -206 43 -21 47 -26 47 -58 0 -60 -11 -67 -59 -40 -22 12 -41 27 -41
31 0 5 -4 6 -10 3 -5 -3 -10 -1 -10 4 0 6 -8 11 -17 11 -16 0 -16 2 -3 10 11
8 7 9 -14 4 -19 -5 -27 -3 -23 3 4 6 1 10 -6 9 -19 -2 -259 123 -286 149 l-24
23 34 15 c19 8 45 26 58 41 30 32 30 32 59 1z m-5797 -132 c57 -31 73 -55 94
-147 14 -61 14 -67 -6 -113 -26 -61 -52 -89 -113 -120 -60 -30 -112 -28 -199
10 -72 32 -97 76 -97 170 0 76 17 123 62 167 75 75 162 86 259 33z m6636 -1
c23 -12 50 -33 61 -47 19 -24 38 -82 30 -90 -2 -2 -29 0 -60 4 -53 7 -60 5
-125 -31 -77 -43 -113 -47 -161 -18 -18 11 -35 20 -37 20 -3 0 -5 -16 -5 -35
0 -19 -4 -35 -10 -35 -12 0 -13 61 -1 111 12 50 58 107 106 131 51 24 143 20
202 -10z m-3199 -180 c-2 -14 -9 -27 -16 -28 -7 -1 -8 0 -2 3 5 2 10 11 10 19
0 9 -3 13 -7 11 -5 -3 -6 16 -4 41 l4 47 9 -34 c5 -18 8 -45 6 -59z m3299 -64
c-3 -8 -6 -5 -6 6 -1 11 2 17 5 13 3 -3 4 -12 1 -19z m-3410 -225 c-3 -10 -5
-4 -5 12 0 17 2 24 5 18 2 -7 2 -21 0 -30z m53 1 c0 -8 -5 -12 -10 -9 -6 4 -8
11 -5 16 9 14 15 11 15 -7z m283 -263 c5 -1 5 -6 1 -13 -11 -18 -9 -60 5 -85
8 -16 8 -23 1 -23 -6 0 -8 -5 -4 -11 4 -6 1 -36 -6 -66 -14 -57 -46 -93 -83
-93 -19 0 -19 4 -12 111 10 160 23 193 70 184 11 -2 24 -4 28 -4z m-793 -26
c0 -15 -6 -25 -15 -25 -8 0 -12 6 -9 14 7 18 -26 29 -62 20 -19 -5 -25 -4 -20
5 4 6 29 11 57 11 46 0 49 -2 49 -25z"/>
<path d="M6601 8512 c-8 -18 -11 -35 -7 -39 3 -3 6 -1 6 6 0 7 5 9 11 5 6 -3
15 0 20 7 11 18 11 32 0 24 -5 -3 -11 3 -13 12 -2 13 -7 9 -17 -15z"/>
<path d="M6630 8400 c0 -5 5 -10 11 -10 5 0 7 5 4 10 -3 6 -8 10 -11 10 -2 0
-4 -4 -4 -10z"/>
<path d="M6407 10684 c5 -14 1 -16 -20 -12 -15 3 -27 1 -27 -3 0 -5 14 -9 30
-9 23 0 30 4 30 20 0 11 -4 20 -10 20 -5 0 -7 -7 -3 -16z"/>
<path d="M5495 10430 c-3 -6 1 -7 9 -4 18 7 21 14 7 14 -6 0 -13 -4 -16 -10z"/>
<path d="M5418 10403 c-9 -2 -19 -11 -22 -19 -4 -11 -1 -11 19 2 14 9 25 18
25 20 0 2 -1 3 -2 3 -2 -1 -10 -3 -20 -6z"/>
<path d="M5355 10360 c3 -5 8 -10 11 -10 2 0 4 5 4 10 0 6 -5 10 -11 10 -5 0
-7 -4 -4 -10z"/>
<path d="M5260 10317 c-85 -43 -143 -81 -309 -204 -2 -2 -2 -5 0 -8 3 -2 36
16 74 40 39 24 85 46 102 50 18 3 33 11 33 18 0 17 36 38 55 31 11 -5 14 -2 8
12 -4 12 -3 15 6 9 8 -5 24 5 44 26 16 19 42 39 56 46 14 6 19 12 11 12 -8 0
-44 -15 -80 -32z"/>
<path d="M4833 9953 c-3 -10 -8 -21 -10 -25 -2 -5 3 -8 12 -8 9 0 14 4 11 9
-3 5 2 15 11 22 9 8 17 12 19 9 1 -3 6 -2 10 3 4 4 -5 7 -20 7 -16 0 -29 -7
-33 -17z"/>
<path d="M4615 9780 c-3 -5 -1 -10 4 -10 6 0 11 5 11 10 0 6 -2 10 -4 10 -3 0
-8 -4 -11 -10z"/>
<path d="M9405 9891 c4 -8 2 -17 -6 -22 -9 -6 -10 -9 -2 -9 19 0 27 21 13 33
-10 9 -11 9 -5 -2z"/>
<path d="M9806 9445 c-3 -8 -1 -15 4 -15 6 0 10 7 10 15 0 8 -2 15 -4 15 -2 0
-6 -7 -10 -15z"/>
<path d="M9873 9302 c-8 -5 -10 -20 -7 -37 9 -48 20 -48 19 0 0 25 0 45 0 45
0 0 -5 -4 -12 -8z"/>
<path d="M9966 9213 c-6 -14 -5 -15 5 -6 7 7 10 15 7 18 -3 3 -9 -2 -12 -12z"/>
<path d="M9955 9180 c3 -5 11 -10 16 -10 6 0 7 5 4 10 -3 6 -11 10 -16 10 -6
0 -7 -4 -4 -10z"/>
<path d="M10009 9113 c-5 -14 -8 -32 -5 -40 3 -7 0 -12 -6 -10 -6 1 -13 -4
-16 -12 -3 -8 0 -11 7 -7 6 4 11 3 11 -2 0 -5 8 -12 18 -16 21 -7 55 -28 63
-40 10 -13 22 32 12 46 -4 7 -8 18 -9 25 -4 23 -39 62 -53 58 -9 -4 -11 0 -7
10 3 8 3 15 0 15 -2 0 -9 -12 -15 -27z m26 -62 c-3 -6 -11 -11 -16 -11 -5 0
-4 6 3 14 14 16 24 13 13 -3z m52 -43 c-3 -8 -6 -5 -6 6 -1 11 2 17 5 13 3 -3
4 -12 1 -19z"/>
<path d="M10040 8979 c0 -5 5 -7 10 -4 6 3 10 8 10 11 0 2 -4 4 -10 4 -5 0
-10 -5 -10 -11z"/>
<path d="M10065 8960 c-4 -7 0 -19 9 -28 13 -14 16 -14 16 -2 0 25 -16 44 -25
30z"/>
<path d="M10111 8934 c0 -11 3 -14 6 -6 3 7 2 16 -1 19 -3 4 -6 -2 -5 -13z"/>
<path d="M10126 8912 c-4 -7 -3 -19 3 -26 6 -7 8 -22 5 -32 -6 -14 -2 -13 15
6 12 14 20 19 16 12 -3 -6 0 -15 8 -18 9 -3 13 -13 9 -26 -4 -15 -2 -19 7 -14
6 4 19 2 29 -6 15 -12 -5 28 -44 86 -13 19 -13 19 -21 0 -6 -17 -8 -17 -13 6
-4 17 -8 21 -14 12z"/>
<path d="M10100 8891 c0 -6 4 -13 10 -16 6 -3 7 1 4 9 -7 18 -14 21 -14 7z"/>
<path d="M10510 7888 c0 -13 5 -41 12 -63 l12 -40 6 30 c4 17 3 34 -2 40 -4 5
-8 17 -8 26 0 10 -4 21 -10 24 -6 3 -10 -4 -10 -17z"/>
<path d="M10571 7744 c0 -11 3 -14 6 -6 3 7 2 16 -1 19 -3 4 -6 -2 -5 -13z"/>
<path d="M3760 10643 c-8 -4 -21 -12 -28 -20 -7 -7 -20 -13 -28 -13 -8 0 -14
-4 -14 -10 0 -5 -10 -11 -22 -11 -16 -1 -18 -3 -7 -6 9 -2 45 12 80 31 55 31
66 47 19 29z"/>
<path d="M3598 10573 c6 -2 18 -2 25 0 6 3 1 5 -13 5 -14 0 -19 -2 -12 -5z"/>
<path d="M7184 10638 c3 -13 6 -30 6 -37 0 -11 3 -12 11 -4 14 14 4 63 -12 63
-7 0 -9 -9 -5 -22z"/>
<path d="M7120 10606 c0 -19 -4 -37 -9 -40 -14 -9 -20 -108 -8 -134 8 -18 8
-25 -2 -31 -8 -5 -11 -17 -6 -30 11 -36 25 -23 25 23 0 25 5 48 10 51 6 3 10
13 10 21 0 23 -20 16 -21 -8 -1 -18 -2 -19 -6 -5 -3 10 0 23 5 30 16 18 27
157 13 157 -6 0 -11 -15 -11 -34z"/>
<path d="M7199 10568 c-1 -7 -1 -18 0 -25 1 -6 -3 -14 -9 -18 -12 -8 -13 -45
-1 -45 5 0 12 6 14 13 3 6 6 -5 6 -26 1 -27 5 -37 14 -34 6 2 10 11 7 18 -2 8
-5 35 -5 60 0 26 -6 52 -12 58 -10 9 -13 9 -14 -1z"/>
<path d="M7371 9724 c0 -11 3 -14 6 -6 3 7 2 16 -1 19 -3 4 -6 -2 -5 -13z"/>
<path d="M7401 9534 c0 -11 3 -14 6 -6 3 7 2 16 -1 19 -3 4 -6 -2 -5 -13z"/>
<path d="M5915 10054 c-101 -42 -135 -90 -99 -142 8 -12 11 -22 5 -22 -5 0
-14 7 -19 15 -7 13 -10 12 -20 -9 -10 -22 -9 -27 10 -37 16 -8 22 -8 28 1 6 9
22 11 53 7 52 -7 82 5 134 53 26 25 33 39 33 70 0 21 -4 42 -10 45 -5 3 -10
15 -10 26 0 26 -30 24 -105 -7z m-105 -184 c0 -5 -2 -10 -4 -10 -3 0 -8 5 -11
10 -3 6 -1 10 4 10 6 0 11 -4 11 -10z"/>
<path d="M8188 10050 c-72 -22 -128 -57 -128 -79 0 -46 66 -91 133 -91 26 0
43 8 66 32 18 18 34 42 37 53 7 27 -20 100 -37 102 -8 1 -40 -7 -71 -17z"/>
<path d="M7986 9425 c-3 -8 -1 -15 4 -15 6 0 10 7 10 15 0 8 -2 15 -4 15 -2 0
-6 -7 -10 -15z"/>
<path d="M8415 9411 c-7 -12 12 -24 25 -16 11 7 4 25 -10 25 -5 0 -11 -4 -15
-9z"/>
<path d="M5580 8465 c0 -8 5 -15 10 -15 6 0 10 7 10 15 0 8 -4 15 -10 15 -5 0
-10 -7 -10 -15z"/>
<path d="M4540 8925 c-19 -23 -9 -25 25 -4 26 17 27 19 9 19 -12 0 -27 -7 -34
-15z"/>
<path d="M7533 8812 c1 -14 5 -18 11 -12 7 7 6 14 -1 21 -9 9 -12 7 -10 -9z"/>
<path d="M8810 8169 c0 -5 5 -7 10 -4 6 3 10 8 10 11 0 2 -4 4 -10 4 -5 0 -10
-5 -10 -11z"/>
<path d="M8840 8160 c0 -5 5 -10 10 -10 6 0 10 5 10 10 0 6 -4 10 -10 10 -5 0
-10 -4 -10 -10z"/>
<path d="M8765 8120 c-3 -5 1 -10 9 -10 9 0 16 5 16 10 0 6 -4 10 -9 10 -6 0
-13 -4 -16 -10z"/>
<path d="M4248 8466 c-19 -8 -24 -16 -19 -25 7 -11 14 -10 35 5 42 31 34 42
-16 20z"/>
<path d="M8550 8485 c0 -8 5 -15 10 -15 6 0 10 7 10 15 0 8 -4 15 -10 15 -5 0
-10 -7 -10 -15z"/>
<path d="M9266 8063 c-6 -14 -5 -15 5 -6 7 7 10 15 7 18 -3 3 -9 -2 -12 -12z"/>
<path d="M6870 8003 c-143 -47 -168 -58 -300 -131 -128 -71 -154 -91 -180
-142 -44 -87 -113 -280 -122 -340 -15 -96 -22 -110 -58 -110 -38 0 -54 -34
-47 -98 6 -52 31 -82 67 -82 27 0 28 -2 37 -77 6 -43 25 -115 43 -161 28 -69
48 -100 116 -176 74 -83 93 -98 196 -153 116 -63 319 -139 397 -149 45 -5 120
13 252 62 69 26 253 129 303 171 31 26 133 157 179 230 29 46 57 145 57 205 0
46 11 53 56 38 31 -10 39 -10 53 4 37 38 -1 198 -54 226 -24 13 -45 56 -45 92
0 22 -48 167 -60 183 -4 6 -25 42 -45 82 -58 114 -108 152 -335 264 -30 14
-84 36 -120 47 -207 64 -238 65 -390 15z m204 -109 c12 -5 16 -22 17 -78 2
-129 1 -126 109 -163 52 -18 102 -33 110 -33 8 0 44 25 80 55 74 64 100 68
150 26 33 -27 34 -30 20 -56 -8 -15 -40 -47 -72 -72 -73 -56 -80 -68 -63 -113
8 -19 21 -63 31 -97 l17 -63 107 0 c60 0 115 -3 124 -6 12 -5 16 -20 16 -58 0
-99 3 -96 -124 -96 -74 0 -116 -4 -124 -12 -13 -13 -15 -9 -12 42 2 57 -18
130 -58 209 -67 133 -154 202 -282 222 -161 25 -278 -12 -390 -121 -66 -64
-85 -114 -97 -250 l-8 -85 -115 -3 c-63 -1 -121 2 -128 7 -9 5 -14 32 -15 77
l-2 69 106 -3 106 -4 11 29 c6 15 16 46 23 68 6 22 18 52 25 66 12 23 10 30
-13 65 -14 21 -46 60 -70 86 -23 26 -43 57 -43 68 0 24 47 90 64 90 6 0 45
-30 86 -66 82 -72 86 -73 180 -41 25 9 62 18 83 22 l37 6 0 94 c0 102 1 104
60 116 19 4 36 7 37 8 1 0 8 -2 17 -5z m29 -463 c112 -43 159 -209 98 -345
-28 -64 -81 -90 -182 -91 -68 0 -80 3 -118 29 -49 34 -68 66 -81 139 -23 116
24 215 120 254 58 24 123 29 163 14z m381 -551 c29 -32 56 -67 58 -78 8 -30
-12 -62 -53 -85 l-36 -21 -40 30 c-22 16 -61 48 -87 71 l-47 42 19 45 c13 28
36 56 63 75 l42 31 13 -26 c8 -15 38 -52 68 -84z m-731 33 c31 -24 57 -50 57
-57 0 -14 -185 -156 -212 -164 -10 -2 -36 7 -58 22 -43 28 -43 35 -3 96 37 55
137 158 148 152 6 -3 36 -25 68 -49z m361 -121 c3 -5 0 -61 -6 -125 l-12 -117
-66 0 -67 0 -7 116 c-3 64 -4 120 -1 125 8 11 152 12 159 1z"/>
<path d="M7560 6490 c0 -5 5 -10 10 -10 6 0 10 5 10 10 0 6 -4 10 -10 10 -5 0
-10 -4 -10 -10z"/>
<path d="M7490 6481 c0 -5 -13 -12 -30 -16 -16 -4 -30 -10 -30 -14 0 -5 -21
-14 -47 -21 -27 -7 -52 -16 -58 -20 -5 -5 -37 -13 -70 -20 -84 -17 -103 -31
-39 -27 29 1 49 6 46 11 -3 5 8 6 26 3 21 -4 32 -2 36 8 3 8 12 12 21 9 8 -3
15 -2 15 3 0 12 45 33 70 33 11 0 20 5 20 11 0 7 15 9 43 5 27 -3 33 -3 17 2
l-25 8 30 17 30 16 -27 1 c-16 0 -28 -4 -28 -9z"/>
<path d="M6612 6434 c10 -10 20 -16 22 -13 3 3 -5 11 -17 18 -21 13 -21 12 -5
-5z"/>
<path d="M6655 6410 c3 -5 10 -10 16 -10 5 0 9 5 9 10 0 6 -7 10 -16 10 -8 0
-12 -4 -9 -10z"/>
<path d="M6728 6384 c23 -9 39 -20 36 -26 -3 -5 2 -9 12 -7 21 2 74 -10 89
-21 8 -6 23 -7 66 -1 4 1 9 7 12 14 3 9 -14 12 -64 13 -38 1 -81 8 -98 17 -17
8 -45 18 -63 21 -28 5 -26 3 10 -10z"/>
<path d="M7138 6353 c7 -3 16 -2 19 1 4 3 -2 6 -13 5 -11 0 -14 -3 -6 -6z"/>
<path d="M4104 8021 c-71 -43 -74 -83 -11 -122 58 -36 126 0 143 75 13 59 -67
87 -132 47z"/>
<path d="M9880 8021 c-25 -7 -26 -14 -15 -68 4 -18 12 -23 36 -23 17 0 39 4
49 10 17 9 50 63 50 82 0 10 -84 9 -120 -1z"/>
<path d="M8035 8049 c-11 -17 1 -21 15 -4 8 9 8 15 2 15 -6 0 -14 -5 -17 -11z"/>
<path d="M8226 7601 c-9 -13 19 -32 37 -25 9 3 13 12 10 20 -6 15 -39 19 -47
5z"/>
<path d="M8325 7580 c3 -5 14 -10 23 -10 15 0 15 2 2 10 -20 13 -33 13 -25 0z"/>
<path d="M9360 7349 c0 -5 11 -9 25 -9 14 0 25 2 25 4 0 2 -11 6 -25 8 -14 3
-25 1 -25 -3z"/>
<path d="M5615 7550 c-3 -5 -1 -10 4 -10 6 0 11 5 11 10 0 6 -2 10 -4 10 -3 0
-8 -4 -11 -10z"/>
<path d="M5516 7519 c3 -6 -1 -10 -12 -9 -33 4 -54 0 -54 -9 0 -8 23 -6 78 5
28 6 29 24 1 24 -12 0 -17 -4 -13 -11z"/>
<path d="M5118 7413 c6 -2 18 -2 25 0 6 3 1 5 -13 5 -14 0 -19 -2 -12 -5z"/>
<path d="M5060 7395 c-11 -13 -10 -14 4 -9 9 3 16 10 16 15 0 13 -6 11 -20 -6z"/>
<path d="M4908 7383 c7 -3 16 -2 19 1 4 3 -2 6 -13 5 -11 0 -14 -3 -6 -6z"/>
<path d="M4950 7380 c8 -5 20 -10 25 -10 6 0 3 5 -5 10 -8 5 -19 10 -25 10 -5
0 -3 -5 5 -10z"/>
<path d="M10075 7024 l-30 -15 30 6 c17 4 34 11 40 16 13 13 -5 10 -40 -7z"/>
<path d="M10490 6420 c0 -11 4 -20 9 -20 5 0 7 9 4 20 -3 11 -7 20 -9 20 -2 0
-4 -9 -4 -20z"/>
<path d="M10402 6280 c0 -14 2 -19 5 -12 2 6 2 18 0 25 -3 6 -5 1 -5 -13z"/>
<path d="M9878 6506 c-10 -7 -18 -26 -18 -41 0 -52 62 -73 100 -33 26 28 25
42 -2 68 -25 23 -55 25 -80 6z"/>
<path d="M4140 6522 c-43 -22 -75 -73 -61 -99 5 -11 21 -25 34 -32 22 -12 30
-11 60 7 55 35 71 88 37 122 -24 24 -26 24 -70 2z"/>
<path d="M9115 5990 c-4 -7 -3 -15 2 -19 5 -3 15 -15 22 -26 11 -18 11 -18 5
5 -11 42 -20 54 -29 40z"/>
<path d="M9202 5875 c6 -14 17 -25 25 -25 20 0 15 13 -12 33 l-25 18 12 -26z"/>
<path d="M9250 5836 c0 -2 7 -9 15 -16 9 -7 15 -8 15 -2 0 5 -7 12 -15 16 -8
3 -15 4 -15 2z"/>
<path d="M9342 5746 c7 -8 15 -12 17 -11 5 6 -10 25 -20 25 -5 0 -4 -6 3 -14z"/>
<path d="M4325 6030 c-57 -22 -57 -70 -1 -70 44 0 77 39 56 65 -14 17 -25 18
-55 5z"/>
<path d="M8471 5704 c0 -11 3 -14 6 -6 3 7 2 16 -1 19 -3 4 -6 -2 -5 -13z"/>
<path d="M4502 5541 c-24 -9 -43 -21 -43 -27 0 -5 25 -10 54 -12 43 -2 57 1
71 17 37 41 -7 53 -82 22z"/>
<path d="M7921 5424 c0 -11 3 -14 6 -6 3 7 2 16 -1 19 -3 4 -6 -2 -5 -13z"/>
<path d="M8311 5182 c-8 -15 -8 -23 0 -28 17 -10 33 11 21 32 -9 16 -10 16
-21 -4z"/>
<path d="M8093 4549 c-6 -6 -10 -17 -8 -23 2 -6 6 -24 10 -39 10 -47 62 -87
112 -87 57 0 75 20 71 79 -3 43 -5 47 -38 57 -58 19 -135 25 -147 13z"/>
<path d="M5898 4469 c-47 -24 -48 -39 -3 -39 25 0 37 6 46 21 17 32 -2 40 -43
18z"/>
<path d="M3503 3928 c9 -46 57 -99 57 -64 0 9 5 16 10 16 19 0 10 15 -23 38
-38 25 -48 27 -44 10z"/>
<path d="M5278 11736 c-44 -16 -77 -37 -136 -84 -113 -93 -172 -238 -151 -374
21 -139 111 -257 248 -325 68 -34 84 -38 151 -38 67 0 84 4 151 37 186 92 268
223 257 413 -7 116 -37 186 -112 261 -47 46 -77 67 -131 88 -86 34 -218 45
-277 22z m175 -188 c47 -14 105 -82 133 -153 15 -39 15 -54 6 -96 -7 -27 -17
-57 -24 -66 -93 -118 -182 -142 -275 -74 -126 91 -147 210 -58 322 58 74 126
95 218 67z"/>
<path d="M5446 11385 c-10 -8 -38 -17 -62 -21 -24 -3 -44 -10 -44 -15 0 -12 7
-11 55 4 47 14 82 33 75 40 -3 3 -14 -1 -24 -8z"/>
<path d="M5280 11370 c0 -6 7 -10 15 -10 8 0 15 2 15 4 0 2 -7 6 -15 10 -8 3
-15 1 -15 -4z"/>
<path d="M8585 11743 c-127 -18 -265 -126 -321 -250 -21 -48 -26 -74 -27 -148
-1 -82 2 -96 31 -156 43 -89 113 -156 214 -207 117 -59 171 -68 259 -47 148
36 267 151 303 293 20 77 20 111 -3 197 -28 111 -83 200 -153 251 -61 46 -217
80 -303 67z m113 -194 c29 -7 59 -20 67 -29 14 -15 12 -21 -22 -58 -30 -33
-54 -46 -116 -67 -42 -14 -84 -25 -92 -25 -8 0 -34 -11 -59 -25 l-44 -24 -4
35 c-9 81 48 160 142 194 30 10 60 18 65 16 6 -2 34 -9 63 -17z m157 -179 c3
-5 1 -10 -4 -10 -6 0 -11 5 -11 10 0 6 2 10 4 10 3 0 8 -4 11 -10z"/>
<path d="M2880 9296 c-113 -32 -224 -125 -276 -233 -38 -78 -45 -207 -16 -299
47 -150 171 -266 326 -305 96 -24 275 34 335 109 58 74 109 183 125 270 14 74
14 92 1 153 -20 99 -51 155 -114 206 -122 99 -255 134 -381 99z m165 -195 c80
-37 144 -125 145 -199 0 -102 -106 -210 -214 -218 -67 -5 -90 3 -136 47 -47
46 -80 110 -80 157 0 56 42 145 82 175 41 30 105 56 138 56 14 0 43 -8 65 -18z"/>
<path d="M2983 8913 c9 -2 23 -2 30 0 6 3 -1 5 -18 5 -16 0 -22 -2 -12 -5z"/>
<path d="M2908 8703 c7 -3 16 -2 19 1 4 3 -2 6 -13 5 -11 0 -14 -3 -6 -6z"/>
<path d="M10967 9289 c-88 -21 -171 -83 -230 -172 -53 -81 -70 -145 -65 -243
4 -73 10 -94 45 -166 24 -47 65 -109 95 -141 43 -48 65 -63 121 -83 135 -48
251 -28 378 65 127 93 196 248 172 386 -31 179 -154 317 -315 355 -52 12 -149
11 -201 -1z m172 -193 c31 -16 121 -112 121 -128 0 -6 -11 1 -25 16 -26 28
-46 26 -75 -9 -25 -30 -88 -55 -137 -55 -76 0 -122 -11 -125 -29 -6 -26 13
-94 36 -126 l20 -29 -27 19 c-33 24 -67 91 -67 131 0 46 20 106 47 143 50 65
168 99 232 67z m148 -248 c-2 -13 -4 -3 -4 22 0 25 2 35 4 23 2 -13 2 -33 0
-45z"/>
<path d="M2940 5993 c-107 -20 -204 -70 -261 -134 -91 -103 -134 -284 -94
-400 43 -123 129 -231 216 -268 116 -50 261 -48 359 5 66 36 147 109 170 153
25 51 50 150 50 203 0 163 -136 378 -267 421 -55 18 -136 28 -173 20z m108
-198 c52 -23 81 -52 108 -113 29 -64 30 -96 4 -124 -19 -21 -20 -21 -20 -2 0
16 -2 17 -10 4 -5 -8 -10 -10 -10 -4 0 15 -67 45 -85 38 -14 -6 -20 6 -16 29
4 22 -198 -28 -221 -55 -16 -18 -19 -18 -24 -4 -12 31 2 126 22 153 59 78 169
112 252 78z"/>
<path d="M10989 5982 c-161 -54 -280 -198 -310 -375 -10 -62 -11 -87 -1 -125
47 -179 180 -300 354 -322 123 -15 208 10 317 93 79 61 122 137 141 255 13 75
-3 154 -49 247 -58 115 -124 180 -222 216 -80 29 -163 33 -230 11z m169 -199
c60 -37 68 -74 23 -117 -38 -36 -94 -48 -174 -37 -35 5 -76 7 -92 4 -27 -6
-28 -5 -21 27 9 47 52 99 100 121 52 23 128 24 164 2z m101 -110 c6 -14 9 -28
7 -31 -7 -7 -45 40 -46 55 0 20 26 4 39 -24z m25 -59 c3 -9 6 -25 6 -37 0 -27
-16 -11 -25 26 -8 29 8 39 19 11z m-364 -140 c0 -20 -7 -17 -20 6 -9 16 -8 18
5 14 8 -4 15 -12 15 -20z"/>
<path d="M5290 3546 c-80 -21 -150 -77 -233 -187 -94 -125 -87 -335 15 -470
72 -94 150 -147 254 -170 107 -24 252 22 338 109 54 54 109 156 127 235 26
122 -37 301 -134 379 -65 51 -155 94 -226 108 -66 12 -84 12 -141 -4z m179
-212 c89 -49 147 -163 122 -243 -14 -48 -82 -126 -132 -151 -52 -27 -118 -26
-155 2 -39 31 -44 36 -87 92 -48 64 -50 115 -7 200 39 76 47 86 95 107 56 26
109 24 164 -7z"/>
<path d="M5245 3189 c12 -19 95 -45 95 -30 0 6 -8 11 -17 11 -10 0 -31 7 -47
15 -34 18 -39 19 -31 4z"/>
<path d="M5403 3153 c-18 -2 -33 -8 -33 -14 0 -14 53 -10 74 6 13 10 15 14 5
13 -8 0 -29 -3 -46 -5z"/>
<path d="M8598 3540 c-130 -22 -285 -141 -326 -251 -59 -159 -24 -324 95 -446
149 -153 391 -158 558 -11 48 41 114 178 122 249 19 183 -91 381 -242 436 -72
25 -143 33 -207 23z m128 -199 c22 -10 50 -31 62 -46 25 -31 29 -54 8 -35 -12
9 -21 7 -45 -11 -17 -13 -31 -26 -31 -29 0 -4 -21 -17 -46 -30 -41 -20 -56
-22 -136 -18 -49 3 -91 8 -94 11 -14 13 11 69 45 105 65 67 160 88 237 53z"/>
<path d="M8073 3336 c-35 -12 -53 -26 -35 -26 7 0 21 -14 31 -31 l19 -31 12
36 c17 54 12 65 -27 52z"/>
</g>
</svg>
